<?xml version="1.0" encoding="utf-8"?>
<!-- Generator: Adobe Illustrator 16.0.0, SVG Export Plug-In . SVG Version: 6.00 Build 0)  -->
<!DOCTYPE svg PUBLIC "-//W3C//DTD SVG 1.1//EN" "http://www.w3.org/Graphics/SVG/1.1/DTD/svg11.dtd">
<svg version="1.1" id="Layer_1" xmlns="http://www.w3.org/2000/svg" xmlns:xlink="http://www.w3.org/1999/xlink" x="0px" y="0px"
	 width="595.28px" height="841.89px" viewBox="0 0 595.28 841.89" enable-background="new 0 0 595.28 841.89" xml:space="preserve">
<g>
	<path fill="#4E8EF7" d="M216.583,187.399c-1.151,0-2.3-0.442-3.182-1.32c-1.755-1.752-1.755-4.6,0-6.356l45.185-45.188
		c1.759-1.756,4.606-1.756,6.362,0c1.763,1.753,1.763,4.602,0.002,6.356l-45.186,45.188
		C218.885,186.957,217.736,187.399,216.583,187.399z"/>
	<path fill="#4E8EF7" d="M239.194,187.288c-0.853,0-1.725-0.249-2.489-0.751l-0.272-0.188c-2.064-1.378-2.622-4.169-1.244-6.229
		c1.377-2.066,4.168-2.629,6.239-1.252l0.269,0.184c2.059,1.375,2.621,4.167,1.242,6.236
		C242.074,186.582,240.652,187.288,239.194,187.288z"/>
	<path fill="#4FD696" d="M202.666,178.838c-1.153,0-2.304-0.445-3.182-1.325c-1.751-1.754-1.751-4.607,0.005-6.361l12.431-12.404
		c1.762-1.755,4.609-1.755,6.364,0.005c1.75,1.759,1.75,4.604-0.006,6.347l-12.438,12.418
		C204.967,178.393,203.816,178.838,202.666,178.838z"/>
	<path fill="#4E8EF7" d="M255.566,170.919c-1.151,0-2.303-0.437-3.177-1.314c-1.756-1.757-1.756-4.612,0-6.362l6.087-6.091
		c1.757-1.757,4.606-1.757,6.363,0c1.753,1.755,1.753,4.6,0,6.357l-6.093,6.096C257.867,170.482,256.717,170.919,255.566,170.919z"
		/>
	<path fill="#4FD696" d="M193.875,165.165c-1.146,0-2.298-0.438-3.172-1.312c-1.76-1.757-1.764-4.602-0.006-6.357l0.084-0.092
		c1.756-1.76,4.602-1.765,6.36-0.01c1.76,1.75,1.762,4.6,0.01,6.364l-0.092,0.08C196.177,164.718,195.029,165.165,193.875,165.165z"
		/>
	<path fill="#4E8EF7" d="M227.241,154.283c-1.155,0-2.307-0.438-3.181-1.312c-1.756-1.762-1.756-4.604,0-6.365l25.989-25.986
		c1.757-1.756,4.602-1.756,6.358,0c1.757,1.752,1.757,4.598,0,6.354l-25.987,25.997
		C229.539,153.846,228.389,154.283,227.241,154.283z"/>
	<path fill="#4FD696" d="M206.109,152.932c-1.154,0-2.306-0.435-3.18-1.317c-1.754-1.752-1.758-4.6-0.001-6.355l33.426-33.452
		c1.757-1.759,4.602-1.761,6.364-0.006c1.755,1.755,1.758,4.602,0.002,6.363l-33.435,33.45
		C208.409,152.497,207.257,152.932,206.109,152.932z"/>
	<path fill="#4FD696" d="M193.341,143.217c-1.156,0-2.306-0.436-3.182-1.313c-1.753-1.756-1.753-4.601,0-6.358l13.06-13.062
		c1.752-1.758,4.606-1.758,6.361,0c1.756,1.754,1.756,4.602-0.004,6.358l-13.059,13.062
		C195.639,142.781,194.492,143.217,193.341,143.217z"/>
	<path fill="#4FD696" d="M217.618,118.918c-2.485,0-4.496-2.013-4.496-4.499v-0.445c0-2.485,2.011-4.496,4.496-4.496
		c2.481,0,4.493,2.011,4.493,4.496v0.445C222.111,116.905,220.099,118.918,217.618,118.918z"/>
</g>
<g>
	<path fill="#3A405B" d="M300.252,126.054c7.413,0,13.497,2.15,18.266,6.454c4.762,4.3,7.149,9.883,7.149,16.741
		c0,6.862-2.388,12.453-7.149,16.779c-4.769,4.324-10.853,6.482-18.266,6.482h-16.345v-46.457H300.252z M295.225,163.91h5.027
		c4.323,0,7.721-1.324,10.192-3.974c2.468-2.644,3.705-6.197,3.705-10.655c0-4.455-1.237-8.004-3.705-10.653
		c-2.472-2.646-5.869-3.973-10.192-3.973h-5.027V163.91z"/>
	<path fill="#3A405B" d="M342.804,135.583v6.885c2.649-4.854,6.178-7.281,10.591-7.281v11.516h-2.781
		c-2.601,0-4.559,0.618-5.856,1.851c-1.303,1.238-1.953,3.398-1.953,6.487v17.47h-11.314v-36.927H342.804z"/>
	<path fill="#3A405B" d="M360.404,167.681c-3.263-3.529-4.896-8.048-4.896-13.569c0-5.515,1.634-10.044,4.896-13.598
		c3.263-3.549,7.251-5.327,11.945-5.327c4.698,0,8.31,1.741,10.823,5.23v-4.834h11.312v36.927h-11.312v-5.359
		c-2.741,3.882-6.4,5.825-10.988,5.825C367.595,172.977,363.667,171.212,360.404,167.681z M380.725,160.797
		c1.629-1.59,2.448-3.838,2.448-6.749c0-2.914-0.819-5.15-2.448-6.718c-1.637-1.566-3.51-2.347-5.63-2.347
		c-2.114,0-3.99,0.792-5.627,2.382c-1.629,1.588-2.445,3.836-2.445,6.746c0,2.915,0.816,5.153,2.445,6.722
		c1.637,1.562,3.513,2.347,5.627,2.347C377.215,163.18,379.088,162.388,380.725,160.797z"/>
	<path fill="#3A405B" d="M419.239,135.583v9.401h-4.698v27.526h-11.316v-27.526h-3.442v-9.401h3.442v-1.39
		c0-4.676,1.242-8.096,3.736-10.256c2.494-2.16,6.405-3.241,11.747-3.241v9.594c-1.499,0-2.567,0.288-3.205,0.862
		c-0.644,0.573-0.962,1.586-0.962,3.042v1.39H419.239z"/>
	<path fill="#3A405B" d="M439.688,162.917h4.036v9.593h-5.757c-4.147,0-7.357-0.912-9.625-2.746
		c-2.276-1.827-3.408-4.972-3.408-9.434v-15.347h-3.446v-9.401h3.446v-9h11.316v9h7.411v9.401h-7.411v15.347
		C436.25,162.054,437.392,162.917,439.688,162.917z"/>
</g>
</svg>
