<?xml version="1.0" encoding="utf-8"?>
<!-- Generator: Adobe Illustrator 16.0.0, SVG Export Plug-In . SVG Version: 6.00 Build 0)  -->
<!DOCTYPE svg PUBLIC "-//W3C//DTD SVG 1.1//EN" "http://www.w3.org/Graphics/SVG/1.1/DTD/svg11.dtd">
<svg version="1.1" id="Layer_1" xmlns="http://www.w3.org/2000/svg" xmlns:xlink="http://www.w3.org/1999/xlink" x="0px" y="0px"
	 width="32px" height="32px" viewBox="0 0 32 32" enable-background="new 0 0 32 32" xml:space="preserve">
<g>
	<path d="M18.877,20.262c-2.989-1.078-3.944-1.988-3.944-3.935c0-1.169,0.913-0.787,1.313-2.928
		c0.167-0.888,0.973-0.015,1.127-2.042c0-0.808-0.44-1.009-0.44-1.009s0.224-1.195,0.312-2.115c0.108-1.146-0.67-4.108-4.819-4.108
		c-4.149,0-4.927,2.962-4.819,4.108c0.088,0.92,0.312,2.115,0.312,2.115s-0.44,0.201-0.44,1.009c0.154,2.027,0.96,1.154,1.126,2.042
		c0.401,2.141,1.314,1.759,1.314,2.928c0,1.947-0.955,2.857-3.945,3.935c-0.36,0.129-1.218,0.332-1.948,0.646v4.816h19.199
		c0,0,0-1.775,0-2.527S21.877,21.344,18.877,20.262z M24.426,13.724v-3.6h-2.4v3.6h-3.6v2.4h3.6v3.6h2.4v-3.6h3.6v-2.4H24.426z"/>
</g>
</svg>
