<?xml version="1.0" encoding="iso-8859-1"?>
<!-- Generator: Adobe Illustrator 16.0.0, SVG Export Plug-In . SVG Version: 6.00 Build 0)  -->
<!DOCTYPE svg PUBLIC "-//W3C//DTD SVG 1.1//EN" "http://www.w3.org/Graphics/SVG/1.1/DTD/svg11.dtd">
<svg version="1.1" xmlns="http://www.w3.org/2000/svg" xmlns:xlink="http://www.w3.org/1999/xlink" x="0px" y="0px" width="32px"
	 height="32px" viewBox="0 0 32 32" style="enable-background:new 0 0 32 32;" xml:space="preserve">
<g id="android">
	<circle cx="19.5" cy="9.5" r="0.5"/>
	<path d="M29.016,0H2.984C1.336,0,0,1.336,0,2.984v26.031C0,30.664,1.336,32,2.984,32h26.031C30.664,32,32,30.664,32,29.016V2.984
		C32,1.336,30.664,0,29.016,0z M12.053,6.724c-0.123-0.247-0.023-0.547,0.224-0.671c0.248-0.124,0.547-0.023,0.671,0.224
		l0.752,1.503C14.521,7.29,15.475,7,16.5,7s1.979,0.29,2.801,0.779l0.752-1.503c0.124-0.247,0.423-0.348,0.671-0.224
		c0.247,0.124,0.347,0.424,0.224,0.671l-0.826,1.651C21.15,9.28,21.845,10.556,21.975,12H11.025c0.13-1.444,0.824-2.72,1.854-3.625
		L12.053,6.724z M10,19c0,0.553-0.447,1-1,1s-1-0.447-1-1v-6c0-0.553,0.447-1,1-1s1,0.447,1,1V19z M22,22c0,0.553-0.447,1-1,1h-1v3
		c0,0.553-0.447,1-1,1s-1-0.447-1-1v-3h-3v3c0,0.553-0.447,1-1,1s-1-0.447-1-1v-3h-1c-0.553,0-1-0.447-1-1v-9h11V22z M25,19
		c0,0.553-0.447,1-1,1s-1-0.447-1-1v-6c0-0.553,0.447-1,1-1s1,0.447,1,1V19z"/>
	<circle cx="13.5" cy="9.5" r="0.5"/>
</g>
<g id="Layer_1">
</g>
</svg>
