<?xml version="1.0" encoding="iso-8859-1"?>
<!-- Generator: Adobe Illustrator 16.0.0, SVG Export Plug-In . SVG Version: 6.00 Build 0)  -->
<!DOCTYPE svg PUBLIC "-//W3C//DTD SVG 1.1//EN" "http://www.w3.org/Graphics/SVG/1.1/DTD/svg11.dtd">
<svg version="1.1" xmlns="http://www.w3.org/2000/svg" xmlns:xlink="http://www.w3.org/1999/xlink" x="0px" y="0px" width="32px"
	 height="32px" viewBox="0 0 32 32" style="enable-background:new 0 0 32 32;" xml:space="preserve">
<g id="apple">
	<path d="M32,2.984C32,1.336,30.664,0,29.016,0H2.984C1.336,0,0,1.336,0,2.984v26.031C0,30.664,1.336,32,2.984,32h26.031
		C30.664,32,32,30.664,32,29.016V2.984z M16.631,7.45c1.062-1.186,2.772-1.5,2.866-1.42c0.094,0.077,0.134,1.842-0.901,3.068
		c-1.035,1.226-2.774,1.499-2.866,1.421C15.636,10.441,15.57,8.637,16.631,7.45z M23.853,20.237
		c-0.347,0.86-0.784,1.633-1.248,2.289c-1.026,1.454-2.191,2.296-2.847,2.311c-1.35,0.03-2.522-0.883-3.489-0.858
		c-0.009,0.005-0.02,0.005-0.028,0.005l-0.013-0.003l-0.013,0.003c-0.009,0-0.02,0-0.029-0.004
		c-0.967-0.023-2.138,0.888-3.486,0.856c-0.657-0.015-1.821-0.857-2.848-2.312c-0.465-0.656-0.9-1.431-1.25-2.29
		c-0.314-0.775-0.559-1.625-0.688-2.522c-0.061-0.419-0.097-0.858-0.102-1.299c-0.004-0.438,0.018-0.861,0.063-1.24
		c0.129-1.049,0.44-1.898,0.847-2.542c1.154-1.843,3.07-2.291,3.67-2.354C13.598,10.152,15.294,11,16.215,11h0.025
		c0.921,0,2.617-0.848,3.822-0.723c0.554,0.061,2.314,0.424,3.396,2.13c-0.157,0.08-0.306,0.172-0.45,0.272
		c-0.802,0.572-1.383,1.454-1.572,2.52c-0.044,0.248-0.067,0.503-0.067,0.77c0,0.626,0.129,1.22,0.359,1.749
		c0.445,1.027,1.271,1.814,2.276,2.129C23.955,19.979,23.905,20.108,23.853,20.237z"/>
</g>
<g id="Layer_1">
</g>
</svg>
