<?xml version="1.0" encoding="utf-8"?>
<!-- Generator: Adobe Illustrator 16.0.0, SVG Export Plug-In . SVG Version: 6.00 Build 0)  -->
<!DOCTYPE svg PUBLIC "-//W3C//DTD SVG 1.1//EN" "http://www.w3.org/Graphics/SVG/1.1/DTD/svg11.dtd">
<svg version="1.1" id="Layer_1" xmlns="http://www.w3.org/2000/svg" xmlns:xlink="http://www.w3.org/1999/xlink" x="0px" y="0px"
	 width="32px" height="32px" viewBox="0 0 32 32" enable-background="new 0 0 32 32" xml:space="preserve">
<g>
	<path d="M20.285,11.5v7.2c0,2.481-1.922,4.5-4.285,4.5s-4.285-2.019-4.285-4.5V15.1v-1.8v-1.8c0-1.489,1.152-2.7,2.57-2.7
		s2.572,1.211,2.572,2.7v1.8v2.25v3.15c0,0.496-0.385,0.899-0.857,0.899s-0.857-0.403-0.857-0.899v-7.2h-1.714v7.2
		c0,1.489,1.153,2.7,2.571,2.7s2.571-1.211,2.571-2.7v-3.15V13.3v-1.8c0-2.481-1.923-4.5-4.286-4.5C11.923,7,10,9.019,10,11.5v1.8
		v1.8V18.7c0,3.474,2.691,6.3,6,6.3s6-2.826,6-6.3v-7.2H20.285z"/>
</g>
</svg>
