<?xml version="1.0" encoding="utf-8"?>
<!-- Generator: Adobe Illustrator 16.0.0, SVG Export Plug-In . SVG Version: 6.00 Build 0)  -->
<!DOCTYPE svg PUBLIC "-//W3C//DTD SVG 1.1//EN" "http://www.w3.org/Graphics/SVG/1.1/DTD/svg11.dtd">
<svg version="1.1" id="Layer_1" xmlns="http://www.w3.org/2000/svg" xmlns:xlink="http://www.w3.org/1999/xlink" x="0px" y="0px"
	 width="32px" height="32px" viewBox="0 0 32 32" enable-background="new 0 0 32 32" xml:space="preserve">
<g>
	<path fill-rule="evenodd" clip-rule="evenodd" d="M5.091,17.059h15.272c0.604,0,1.092-0.475,1.092-1.059s-0.488-1.059-1.092-1.059
		H5.091C4.488,14.941,4,15.416,4,16S4.488,17.059,5.091,17.059z M5.091,12.117h15.272c0.604,0,1.092-0.474,1.092-1.059
		S20.967,10,20.363,10H5.091C4.488,10,4,10.474,4,11.059S4.488,12.117,5.091,12.117z M20.363,19.883H5.091
		C4.488,19.883,4,20.355,4,20.941C4,21.525,4.488,22,5.091,22h15.272c0.604,0,1.092-0.475,1.092-1.059
		C21.455,20.355,20.967,19.883,20.363,19.883z"/>
	<path fill-rule="evenodd" clip-rule="evenodd" d="M25.091,13.529v4.941L28,16L25.091,13.529z"/>
</g>
</svg>
