<?xml version="1.0" encoding="utf-8"?>
<!-- Generator: Adobe Illustrator 16.0.0, SVG Export Plug-In . SVG Version: 6.00 Build 0)  -->
<!DOCTYPE svg PUBLIC "-//W3C//DTD SVG 1.1//EN" "http://www.w3.org/Graphics/SVG/1.1/DTD/svg11.dtd">
<svg version="1.1" id="Layer_1" xmlns="http://www.w3.org/2000/svg" xmlns:xlink="http://www.w3.org/1999/xlink" x="0px" y="0px"
	 width="32px" height="32px" viewBox="0 0 32 32" enable-background="new 0 0 32 32" xml:space="preserve">
<g>
	<path fill-rule="evenodd" clip-rule="evenodd" d="M26.909,14.941H11.637c-0.604,0-1.092,0.475-1.092,1.059s0.488,1.059,1.092,1.059
		h15.272C27.512,17.059,28,16.584,28,16S27.512,14.941,26.909,14.941z M26.909,19.883H11.637c-0.604,0-1.092,0.474-1.092,1.059
		S11.033,22,11.637,22h15.272C27.512,22,28,21.526,28,20.941S27.512,19.883,26.909,19.883z M11.637,12.117h15.272
		c0.603,0,1.091-0.473,1.091-1.059C28,10.475,27.512,10,26.909,10H11.637c-0.604,0-1.092,0.475-1.092,1.059
		C10.545,11.645,11.033,12.117,11.637,12.117z"/>
	<path fill-rule="evenodd" clip-rule="evenodd" d="M6.909,18.471v-4.941L4,16L6.909,18.471z"/>
</g>
</svg>
