<?xml version="1.0" encoding="iso-8859-1"?>
<!-- Generator: Adobe Illustrator 16.0.0, SVG Export Plug-In . SVG Version: 6.00 Build 0)  -->
<!DOCTYPE svg PUBLIC "-//W3C//DTD SVG 1.1//EN" "http://www.w3.org/Graphics/SVG/1.1/DTD/svg11.dtd">
<svg version="1.1" xmlns="http://www.w3.org/2000/svg" xmlns:xlink="http://www.w3.org/1999/xlink" x="0px" y="0px"
	 width="27.918px" height="19.027px" viewBox="0 0 27.918 19.027" style="enable-background:new 0 0 27.918 19.027;"
	 xml:space="preserve">
<g id="cloud-upload">
	<path d="M24.786,7.686c0.081-0.406,0.125-0.827,0.125-1.258c0-3.564-2.891-6.455-6.457-6.455c-3.014,0-5.537,2.068-6.248,4.861
		c-0.743-0.54-1.649-0.868-2.639-0.868c-1.972,0-3.63,1.276-4.239,3.04C2.334,7.321,0,9.922,0,13c0,3.291,2.667,6.027,5.958,6.027
		c3.292,0,12.709,0,16,0c3.292,0,5.96-2.736,5.96-6.027C27.918,10.732,26.651,8.693,24.786,7.686z M17.902,12.716
		c-0.076,0.136-0.219,0.312-0.376,0.312h-0.827c-0.354,0-0.699,0.19-0.699,0.544v1.442c0,0.515-0.426,1.014-0.94,1.014h-1.135
		c-0.515,0-0.925-0.499-0.925-1.014v-1.442c0-0.354-0.355-0.544-0.709-0.544h-0.827c-0.156,0-0.3-0.176-0.376-0.312
		c-0.077-0.136-0.074-0.371,0.008-0.504l3.031-4.991c0.078-0.129,0.218-0.21,0.369-0.21c0.15,0,0.289,0.081,0.368,0.21l3.031,5.021
		C17.977,12.375,17.98,12.579,17.902,12.716z"/>
</g>
<g id="Layer_1">
</g>
</svg>
