<?xml version="1.0" encoding="iso-8859-1"?>
<!-- Generator: Adobe Illustrator 16.0.0, SVG Export Plug-In . SVG Version: 6.00 Build 0)  -->
<!DOCTYPE svg PUBLIC "-//W3C//DTD SVG 1.1//EN" "http://www.w3.org/Graphics/SVG/1.1/DTD/svg11.dtd">
<svg version="1.1" xmlns="http://www.w3.org/2000/svg" xmlns:xlink="http://www.w3.org/1999/xlink" x="0px" y="0px"
	 width="19.143px" height="19.144px" viewBox="0 0 19.143 19.144" style="enable-background:new 0 0 19.143 19.144;"
	 xml:space="preserve">
<g id="delete-2">
	<path d="M13.106,9.571l5.304-5.303c0.47-0.469,0.732-1.104,0.732-1.768S18.88,1.202,18.41,0.732c-0.977-0.977-2.559-0.977-3.535,0
		L9.571,6.036L4.269,0.732C3.8,0.264,3.164,0.001,2.501,0.001S1.202,0.264,0.732,0.733C0.264,1.202,0,1.838,0,2.501
		S0.264,3.8,0.732,4.269l5.304,5.303l-5.304,5.304c-0.977,0.977-0.977,2.559,0.001,3.536c0.469,0.469,1.104,0.732,1.768,0.732
		S3.8,18.88,4.269,18.411l5.303-5.304l5.304,5.304c0.977,0.977,2.559,0.977,3.535,0c0.47-0.47,0.733-1.105,0.732-1.769
		c0-0.663-0.263-1.299-0.731-1.768L13.106,9.571z"/>
</g>
<g id="Layer_1">
</g>
</svg>
