<?xml version="1.0" encoding="iso-8859-1"?>
<!-- Generator: Adobe Illustrator 16.0.0, SVG Export Plug-In . SVG Version: 6.00 Build 0)  -->
<!DOCTYPE svg PUBLIC "-//W3C//DTD SVG 1.1//EN" "http://www.w3.org/Graphics/SVG/1.1/DTD/svg11.dtd">
<svg version="1.1" xmlns="http://www.w3.org/2000/svg" xmlns:xlink="http://www.w3.org/1999/xlink" x="0px" y="0px" width="32px"
	 height="32px" viewBox="0 0 32 32" style="enable-background:new 0 0 32 32;" xml:space="preserve">
<g id="dropbox">
	<polygon points="10.084,14.423 15.611,17.836 21.138,14.423 15.611,11.011 	"/>
	<path d="M32,2.984C32,1.336,30.664,0,29.016,0H2.984C1.336,0,0,1.336,0,2.984v26.031C0,30.664,1.336,32,2.984,32h26.031
		C30.664,32,32,30.664,32,29.016V2.984z M21,21.848l-5.5,3.294L10,21.848v-1.206l1.711,1.074l3.911-3.192l3.789,3.192L21,20.642
		V21.848z M24.928,17.459l-5.481,3.578l-3.835-3.201l-3.836,3.201l-5.481-3.578l3.79-3.036l-3.79-3.035l5.481-3.579l3.836,3.202
		l3.835-3.202l5.481,3.579l-3.79,3.035L24.928,17.459z"/>
</g>
<g id="Layer_1">
</g>
</svg>
