<?xml version="1.0" encoding="iso-8859-1"?>
<!-- Generator: Adobe Illustrator 16.0.0, SVG Export Plug-In . SVG Version: 6.00 Build 0)  -->
<!DOCTYPE svg PUBLIC "-//W3C//DTD SVG 1.1//EN" "http://www.w3.org/Graphics/SVG/1.1/DTD/svg11.dtd">
<svg version="1.1" xmlns="http://www.w3.org/2000/svg" xmlns:xlink="http://www.w3.org/1999/xlink" x="0px" y="0px" width="29px"
	 height="32px" viewBox="0 0 29 32" style="enable-background:new 0 0 29 32;" xml:space="preserve">
<g id="duplicate">
	<path d="M21.954,11h4.741c0.387,0,0.735-0.232,0.882-0.59c0.148-0.355,0.066-0.767-0.206-1.039l-4.742-4.742
		c-0.272-0.272-0.684-0.354-1.039-0.206C21.232,4.569,21,4.918,21,5.305v4.741C21,10.573,21.427,11,21.954,11z"/>
	<path d="M11,1V0.954C11,0.427,10.573,0,10.046,0H2.965C1.327,0,0,1.327,0,2.965v23.07C0,27.673,1.327,29,2.965,29H6V5.965
		C6,3.228,8.228,1,10.965,1H11z"/>
	<path d="M28.046,13h-7.124C19.86,13,19,12.14,19,11.078V3.954C19,3.427,18.573,3,18.046,3h-7.081C9.327,3,8,4.327,8,5.965v23.07
		C8,30.673,9.327,32,10.965,32h15.07C27.673,32,29,30.673,29,29.035V13.954C29,13.427,28.573,13,28.046,13z M21.035,26H15.98
		c-0.553,0-1-0.448-1-1s0.447-1,1-1h5.055c0.552,0,1,0.448,1,1S21.587,26,21.035,26z M22.007,22h-6.972c-0.553,0-1-0.448-1-1
		s0.447-1,1-1h6.972c0.553,0,1,0.448,1,1S22.56,22,22.007,22z"/>
</g>
<g id="Layer_1">
</g>
</svg>
