<?xml version="1.0" encoding="utf-8"?>
<!-- Generator: Adobe Illustrator 16.0.0, SVG Export Plug-In . SVG Version: 6.00 Build 0)  -->
<!DOCTYPE svg PUBLIC "-//W3C//DTD SVG 1.1//EN" "http://www.w3.org/Graphics/SVG/1.1/DTD/svg11.dtd">
<svg version="1.1" id="Layer_1" xmlns="http://www.w3.org/2000/svg" xmlns:xlink="http://www.w3.org/1999/xlink" x="0px" y="0px"
	 width="48px" height="47px" viewBox="0 0 48 47" enable-background="new 0 0 48 47" xml:space="preserve">
<g id="Icons">
	<g id="Black" transform="translate(-700.000000, -560.000000)">
		<path id="Github" d="M723.999,560C710.746,560,700,570.787,700,584.097c0,10.644,6.876,19.675,16.415,22.862
			c1.2,0.221,1.638-0.523,1.638-1.162c0-0.572-0.021-2.087-0.033-4.098c-6.677,1.457-8.085-3.23-8.085-3.23
			c-1.091-2.782-2.664-3.523-2.664-3.523c-2.18-1.495,0.165-1.465,0.165-1.465c2.407,0.17,3.675,2.482,3.675,2.482
			c2.142,3.683,5.618,2.619,6.986,2.002c0.217-1.557,0.838-2.619,1.524-3.221c-5.33-0.609-10.932-2.675-10.932-11.908
			c0-2.631,0.935-4.781,2.471-6.466c-0.248-0.61-1.071-3.059,0.234-6.376c0,0,2.016-0.648,6.6,2.47
			c1.916-0.535,3.967-0.801,6.009-0.812c2.039,0.011,4.092,0.277,6.009,0.812c4.581-3.118,6.593-2.47,6.593-2.47
			c1.309,3.317,0.485,5.766,0.238,6.376c1.539,1.685,2.467,3.835,2.467,6.466c0,9.256-5.611,11.293-10.957,11.89
			c0.861,0.744,1.629,2.214,1.629,4.462c0,3.222-0.029,5.819-0.029,6.609c0,0.645,0.432,1.395,1.649,1.158
			C741.13,603.763,748,594.738,748,584.097C748,570.787,737.254,560,723.999,560"/>
	</g>
</g>
</svg>
