<?xml version="1.0" encoding="iso-8859-1"?>
<!-- Generator: Adobe Illustrator 16.0.0, SVG Export Plug-In . SVG Version: 6.00 Build 0)  -->
<!DOCTYPE svg PUBLIC "-//W3C//DTD SVG 1.1//EN" "http://www.w3.org/Graphics/SVG/1.1/DTD/svg11.dtd">
<svg version="1.1" xmlns="http://www.w3.org/2000/svg" xmlns:xlink="http://www.w3.org/1999/xlink" x="0px" y="0px" width="32px"
	 height="32px" viewBox="0 0 32 32" style="enable-background:new 0 0 32 32;" xml:space="preserve">
<g id="github">
	<path d="M32,2.984C32,1.336,30.664,0,29.016,0H2.984C1.336,0,0,1.336,0,2.984v26.031C0,30.664,1.336,32,2.984,32h26.031
		C30.664,32,32,30.664,32,29.016V2.984z M18.584,18.66c0.869,0.548,1.119,1.234,1.119,3.088c0,1.857-0.025,2.107-0.02,2.535
		c0.01,0.699,1.036,1.033,0.997,1.26c-0.038,0.226-0.858,0.189-1.243,0.055c-1.086-0.377-0.977-1.283-0.977-1.283l-0.039-2.481
		L18,20.498v4.063c0,0.883,0.621,1.151,0.621,1.477c0,0.563-1.129-0.053-1.477-0.403c-0.529-0.532-0.469-1.661-0.457-2.553
		c0.013-0.862-0.008-2.749-0.008-2.749l-0.359,0.007c0,0,0.148,4.119-0.189,4.871c-0.436,0.964-1.752,1.296-1.752,0.856
		c0-0.296,0.323-0.201,0.504-0.863c0.152-0.563,0.1-4.764,0.1-4.764s-0.422,0.251-0.422,1.038c0,0.359-0.01,2.416-0.01,3.028
		c0,0.771-1.094,1.208-1.619,1.208c-0.266,0-0.596-0.014-0.596-0.155c0-0.355,0.999-0.563,0.999-1.305
		c0-0.644-0.014-2.295-0.014-2.295s-0.505,0.086-1.224,0.086c-1.813,0-2.387-1.157-2.659-1.805
		c-0.354-0.843-0.815-1.238-1.305-1.556c-0.301-0.194-0.37-0.425-0.022-0.489c1.605-0.303,2.016,1.819,3.088,2.159
		c0.765,0.239,1.748,0.136,2.236-0.182c0.064-0.648,0.533-1.208,0.922-1.503c-2.557-0.245-5.922-1.808-5.922-6.203
		c0-1.754,0.547-2.415,1.281-3.352c-0.562-2,0.201-3.367,0.201-3.367s1.18-0.244,3.41,1.354c1.209-0.519,4.432-0.563,5.957-0.115
		c0.936-0.618,2.647-1.496,3.338-1.251c0.188,0.301,0.59,1.178,0.245,3.107c0.234,0.423,1.458,1.324,1.458,3.869
		C24.326,16.935,21.039,18.408,18.584,18.66z"/>
</g>
<g id="Layer_1">
</g>
</svg>
