<?xml version="1.0" encoding="iso-8859-1"?>
<!-- Generator: Adobe Illustrator 16.0.0, SVG Export Plug-In . SVG Version: 6.00 Build 0)  -->
<!DOCTYPE svg PUBLIC "-//W3C//DTD SVG 1.1//EN" "http://www.w3.org/Graphics/SVG/1.1/DTD/svg11.dtd">
<svg version="1.1" xmlns="http://www.w3.org/2000/svg" xmlns:xlink="http://www.w3.org/1999/xlink" x="0px" y="0px"
	 width="28.706px" height="29.815px" viewBox="0 0 28.706 29.815" style="enable-background:new 0 0 28.706 29.815;"
	 xml:space="preserve">
<g id="link">
	<path d="M12.459,21.746c-0.046,0.051-0.091,0.1-0.138,0.146c-0.025,0.027-0.047,0.057-0.073,0.086l-2.332,2.549
		c-1.143,1.25-2.964,1.391-4.407,0.07l-0.023-0.021c-1.442-1.32-1.462-3.145-0.319-4.396L7.5,17.631
		c0.031-0.033,0.063-0.066,0.096-0.1c0.037-0.043,0.074-0.087,0.115-0.129l4.134-4.521c-2.713-1.044-5.714-0.589-7.562,1.429
		l-2.708,2.962c-2.514,2.747-1.953,7.343,1.219,10.245l0.025,0.022c3.171,2.901,7.801,3.054,10.314,0.308l2.708-2.962
		c1.844-2.013,2.031-5.037,0.748-7.651L12.459,21.746z"/>
	<path d="M25.895,2.268c-3.17-2.9-7.811-3.039-10.324-0.294l-2.708,2.96c-1.847,2.02-2.033,5.049-0.752,7.658l4.312-4.714
		c0.01-0.011,0.021-0.019,0.029-0.03c0,0,0.002-0.003,0.004-0.004l2.332-2.55c1.145-1.25,2.994-1.423,4.459-0.083
		c1.443,1.321,1.434,3.179,0.291,4.43l-2.273,2.484c-0.031,0.033-0.063,0.066-0.092,0.099l-4.313,4.714
		c2.713,1.044,5.715,0.59,7.561-1.428l2.709-2.959C29.643,9.803,29.092,5.193,25.895,2.268z"/>
	<path d="M8.473,21.209l0.124,0.113c0.94,0.859,2.372,0.787,3.232-0.153l8.713-9.521c0.857-0.939,0.801-2.371-0.141-3.23
		l-0.123-0.113c-0.938-0.857-2.367-0.789-3.227,0.15L8.34,17.979C7.481,18.918,7.535,20.352,8.473,21.209z"/>
</g>
<g id="Layer_1">
</g>
</svg>
