<?xml version="1.0" encoding="iso-8859-1"?>
<!-- Generator: Adobe Illustrator 16.0.0, SVG Export Plug-In . SVG Version: 6.00 Build 0)  -->
<!DOCTYPE svg PUBLIC "-//W3C//DTD SVG 1.1//EN" "http://www.w3.org/Graphics/SVG/1.1/DTD/svg11.dtd">
<svg version="1.1" xmlns="http://www.w3.org/2000/svg" xmlns:xlink="http://www.w3.org/1999/xlink" x="0px" y="0px" width="29px"
	 height="29px" viewBox="0 0 29 29" style="enable-background:new 0 0 29 29;" xml:space="preserve">
<g id="photo">
	<circle cx="9.027" cy="8.009" r="2.994"/>
	<path d="M17.157,10.04l-2.973,4.757c-0.319,0.509-0.929,0.578-1.354,0.153l-0.887-0.887c-0.425-0.426-1.121-0.426-1.547,0
		l-5.387,4.988c-0.166,0.153-0.22,0.392-0.138,0.601C4.954,19.862,5.156,20,5.38,20h18.566c0.201,0,0.387-0.111,0.482-0.289
		c0.095-0.178,0.084-0.394-0.028-0.562l-6.083-9.109C17.998,9.53,17.477,9.53,17.157,10.04z"/>
	<path d="M25.893,0H3.107C1.392,0,0,1.392,0,3.108v22.783C0,27.608,1.392,29,3.107,29h22.785C27.608,29,29,27.608,29,25.892V3.108
		C29,1.392,27.608,0,25.893,0z M26,21c0,0.55-0.45,1-1,1H4c-0.55,0-1-0.45-1-1V4c0-0.55,0.45-1,1-1h21c0.55,0,1,0.45,1,1V21z"/>
</g>
<g id="Layer_1">
</g>
</svg>
