<?xml version="1.0" encoding="iso-8859-1"?>
<!-- Generator: Adobe Illustrator 16.0.0, SVG Export Plug-In . SVG Version: 6.00 Build 0)  -->
<!DOCTYPE svg PUBLIC "-//W3C//DTD SVG 1.1//EN" "http://www.w3.org/Graphics/SVG/1.1/DTD/svg11.dtd">
<svg version="1.1" xmlns="http://www.w3.org/2000/svg" xmlns:xlink="http://www.w3.org/1999/xlink" x="0px" y="0px" width="26px"
	 height="26px" viewBox="0 0 26 26" style="enable-background:new 0 0 26 26;" xml:space="preserve">
<g id="rectangle-anchor-point">
	<path d="M17,3H9V1.816C9,0.813,8.187,0,7.184,0H1.816C0.813,0,0,0.813,0,1.816v5.367C0,8.187,0.813,9,1.816,9H3v8H1.816
		C0.813,17,0,17.813,0,18.816v5.367C0,25.187,0.813,26,1.816,26h5.367C8.187,26,9,25.187,9,24.184V23h8v1.184
		C17,25.187,17.813,26,18.816,26h5.367C25.188,26,26,25.187,26,24.184c0-1.576,0-3.811,0-5.367C26,17.813,25.188,17,24.185,17H23V9
		h1.184C25.187,9,26,8.187,26,7.184V1.816C26,0.813,25.187,0,24.184,0h-5.367C17.813,0,17,0.813,17,1.816V3z M2,7V2h5v5H2z M7,24H2
		v-5h5V24z M9,20v-1.184C9,17.813,8.187,17,7.184,17H6V9h1.184C8.187,9,9,8.187,9,7.184V6h8v1.184C17,8.187,17.813,9,18.816,9H20v8
		h-1.184C17.813,17,17,17.813,17,18.816V20H9z M24,19v5h-5v-5H24z M24,2v5h-5V2H24z"/>
</g>
<g id="Layer_1">
</g>
</svg>
