<?xml version="1.0" encoding="iso-8859-1"?>
<!-- Generator: Adobe Illustrator 16.0.0, SVG Export Plug-In . SVG Version: 6.00 Build 0)  -->
<!DOCTYPE svg PUBLIC "-//W3C//DTD SVG 1.1//EN" "http://www.w3.org/Graphics/SVG/1.1/DTD/svg11.dtd">
<svg version="1.1" xmlns="http://www.w3.org/2000/svg" xmlns:xlink="http://www.w3.org/1999/xlink" x="0px" y="0px" width="31.01px"
	 height="24.396px" viewBox="0 0 31.01 24.396" style="enable-background:new 0 0 31.01 24.396;" xml:space="preserve">
<g id="replay">
	<path d="M9.63,11.149c0.232-0.124,0.37-0.358,0.37-0.61V8.396h11.01c2.206,0,4,1.748,4,3.954c0,0.114-0.024,0.2-0.034,0.312
		l4.534,2.59c0.318-0.921,0.5-1.867,0.5-2.896c0-4.971-4.029-8.959-9-8.959H10V0.701c0-0.253-0.137-0.486-0.37-0.61
		s-0.515-0.12-0.744,0.012L0.354,5.021C0.134,5.148,0,5.375,0,5.62s0.135,0.472,0.354,0.599l8.534,4.918
		C9.117,11.27,9.396,11.273,9.63,11.149z"/>
	<path d="M30.655,18.204l-8.535-4.898c-0.229-0.132-0.512-0.137-0.745-0.013C21.142,13.416,21,13.649,21,13.901v2.495H10.01
		c-2.206,0-4-1.84-4-4.046c0-0.165,0.029-0.345,0.049-0.505l-4.5-2.602C1.21,10.205,1.01,11.275,1.01,12.356
		c0,4.97,4.029,9.041,9,9.041H21v2.303c0,0.252,0.142,0.485,0.375,0.608s0.518,0.118,0.746-0.013l8.534-4.898
		c0.22-0.127,0.354-0.353,0.354-0.597C31.009,18.557,30.875,18.33,30.655,18.204z"/>
</g>
<g id="Layer_1">
</g>
</svg>
