<?xml version="1.0" encoding="utf-8"?>
<!-- Generator: Adobe Illustrator 16.0.0, SVG Export Plug-In . SVG Version: 6.00 Build 0)  -->
<!DOCTYPE svg PUBLIC "-//W3C//DTD SVG 1.1//EN" "http://www.w3.org/Graphics/SVG/1.1/DTD/svg11.dtd">
<svg version="1.1" id="Layer_1" xmlns="http://www.w3.org/2000/svg" xmlns:xlink="http://www.w3.org/1999/xlink" x="0px" y="0px"
	 width="32px" height="32px" viewBox="0 0 32 32" enable-background="new 0 0 32 32" xml:space="preserve">
<path fill-rule="evenodd" clip-rule="evenodd" d="M17.941,17.963L17.941,17.963c-1.561,1.576-4.101,1.576-5.66,0
	c-1.562-1.579-1.562-4.146,0-5.725c1.56-1.578,4.1-1.578,5.66,0C19.501,13.817,19.501,16.384,17.941,17.963z M10.866,10.807
	c-2.346,2.371-2.346,6.216,0,8.587c1.924,1.945,4.829,2.291,7.104,1.043l3.508,2.533l1.415-1.43l-2.506-3.549
	c1.234-2.301,0.893-5.239-1.031-7.185C17.012,8.437,13.211,8.437,10.866,10.807z"/>
</svg>
