<?xml version="1.0" encoding="iso-8859-1"?>
<!-- Generator: Adobe Illustrator 16.0.0, SVG Export Plug-In . SVG Version: 6.00 Build 0)  -->
<!DOCTYPE svg PUBLIC "-//W3C//DTD SVG 1.1//EN" "http://www.w3.org/Graphics/SVG/1.1/DTD/svg11.dtd">
<svg version="1.1" xmlns="http://www.w3.org/2000/svg" xmlns:xlink="http://www.w3.org/1999/xlink" x="0px" y="0px" width="30px"
	 height="30px" viewBox="0 0 30 30" style="enable-background:new 0 0 30 30;" xml:space="preserve">
<g id="gear">
	<path d="M29.021,17C29.562,17,30,16.562,30,16.021v-2.041C30,13.438,29.562,13,29.021,13h-2.265
		c-0.309-1.802-1.015-3.464-2.033-4.895L26.328,6.5c0.382-0.382,0.382-1.002,0-1.385l-1.443-1.443c-0.382-0.382-1.003-0.382-1.385,0
		l-1.607,1.607C20.462,4.264,18.801,3.56,17,3.254V0.979C17,0.438,16.562,0,16.021,0h-2.041C13.438,0,13,0.438,13,0.979V3.25
		c-1.804,0.303-3.47,1.004-4.903,2.019L6.5,3.672c-0.382-0.382-1.002-0.382-1.385,0L3.672,5.115C3.29,5.498,3.29,6.118,3.672,6.5
		l1.592,1.592C4.24,9.525,3.529,11.192,3.22,13h-2.24C0.438,13,0,13.438,0,13.979v2.041C0,16.562,0.438,17,0.979,17h2.233
		c0.303,1.814,1.009,3.488,2.031,4.928L3.672,23.5c-0.382,0.382-0.382,1.003,0,1.385l1.443,1.443c0.382,0.382,1.002,0.382,1.385,0
		l1.57-1.57c1.44,1.024,3.114,1.733,4.93,2.038v2.225C13,29.562,13.438,30,13.979,30h2.041C16.562,30,17,29.562,17,29.021v-2.229
		c1.812-0.308,3.482-1.02,4.919-2.045l1.581,1.581c0.382,0.382,1.003,0.382,1.385,0l1.443-1.443c0.382-0.382,0.382-1.003,0-1.385
		l-1.586-1.586c1.017-1.437,1.719-3.105,2.021-4.914H29.021z M14.987,20.975c-3.281,0-5.951-2.67-5.951-5.952
		c0-3.281,2.67-5.951,5.951-5.951c3.282,0,5.952,2.67,5.952,5.951C20.939,18.305,18.27,20.975,14.987,20.975z"/>
</g>
<g id="Layer_1">
</g>
</svg>
