<?xml version="1.0" encoding="iso-8859-1"?>
<!-- Generator: Adobe Illustrator 16.0.0, SVG Export Plug-In . SVG Version: 6.00 Build 0)  -->
<!DOCTYPE svg PUBLIC "-//W3C//DTD SVG 1.1//EN" "http://www.w3.org/Graphics/SVG/1.1/DTD/svg11.dtd">
<svg version="1.1" id="Layer_1" xmlns="http://www.w3.org/2000/svg" xmlns:xlink="http://www.w3.org/1999/xlink" x="0px" y="0px"
	 width="25.458px" height="25.459px" viewBox="0 0 25.458 25.459" style="enable-background:new 0 0 25.458 25.459;"
	 xml:space="preserve">
<g id="tag">
	<path d="M22.183,0.004l-8.216-0.005c-0.799,0.026-1.602,0.343-2.207,0.95L0.956,11.753c-1.272,1.271-1.274,3.376-0.002,4.649
		l8.103,8.102c1.274,1.274,3.379,1.271,4.649-0.001l10.803-10.804c0.609-0.607,0.922-1.404,0.949-2.205V3.277
		C25.456,1.478,23.981,0.004,22.183,0.004z M19.458,8.999c-1.656,0-3-1.343-3-3s1.344-3,3-3c1.658,0,3,1.343,3,3
		S21.116,8.999,19.458,8.999z"/>
</g>
<g id="Layer_1_1_">
</g>
</svg>
