<?xml version="1.0" encoding="iso-8859-1"?>
<!-- Generator: Adobe Illustrator 16.0.0, SVG Export Plug-In . SVG Version: 6.00 Build 0)  -->
<!DOCTYPE svg PUBLIC "-//W3C//DTD SVG 1.1//EN" "http://www.w3.org/Graphics/SVG/1.1/DTD/svg11.dtd">
<svg version="1.1" xmlns="http://www.w3.org/2000/svg" xmlns:xlink="http://www.w3.org/1999/xlink" x="0px" y="0px" width="26px"
	 height="29px" viewBox="0 0 26 29" style="enable-background:new 0 0 26 29;" xml:space="preserve">
<g id="caps">
	<path d="M23.559,0H2.617C1.171,0,0,1.171,0,2.617v7.854c1.539,0,2.878-1.166,3.252-2.658L3.69,5.986C3.829,5.408,4.346,5,4.941,5
		H10v21H7.853c-1.446,0-2.617,1-2.617,3h15.706c0-2-1.171-3-2.618-3H16V5h5.204c0.609,0,1.135,0.427,1.26,1.023l0.373,1.789
		C23.21,9.305,25,10.471,26,10.471V2.617C26,1.171,25.006,0,23.559,0z"/>
</g>
<g id="Layer_1">
</g>
</svg>
