<?xml version="1.0" encoding="utf-8"?>
<!-- Generator: Adobe Illustrator 16.0.0, SVG Export Plug-In . SVG Version: 6.00 Build 0)  -->
<!DOCTYPE svg PUBLIC "-//W3C//DTD SVG 1.1//EN" "http://www.w3.org/Graphics/SVG/1.1/DTD/svg11.dtd">
<svg version="1.1" id="Layer_1" xmlns="http://www.w3.org/2000/svg" xmlns:xlink="http://www.w3.org/1999/xlink" x="0px" y="0px"
	 width="32px" height="32px" viewBox="0 0 32 32" enable-background="new 0 0 32 32" xml:space="preserve">
<g>
	<path fill-rule="evenodd" clip-rule="evenodd" d="M9.5,10.483c0-0.457,0.363-0.828,0.812-0.828h4.062V8.828
		C14.375,8.371,14.738,8,15.188,8h1.625c0.449,0,0.812,0.371,0.812,0.828v0.828h4.062c0.449,0,0.812,0.371,0.812,0.828v0.828h-13
		V10.483z M21.688,12.966v1.654v8.553c0,0.457-0.363,0.827-0.812,0.827h-9.75c-0.449,0-0.812-0.37-0.812-0.827V14.62v-1.654v-0.828
		h11.375V12.966z M13.562,14.62c0-0.457-0.363-0.827-0.812-0.827s-0.812,0.37-0.812,0.827v6.897c0,0.456,0.363,0.827,0.812,0.827
		s0.812-0.371,0.812-0.827V14.62z M16.812,14.62c0-0.457-0.363-0.827-0.812-0.827s-0.812,0.37-0.812,0.827v6.897
		c0,0.456,0.363,0.827,0.812,0.827s0.812-0.371,0.812-0.827V14.62z M20.062,14.62c0-0.457-0.363-0.827-0.812-0.827
		s-0.812,0.37-0.812,0.827v6.897c0,0.456,0.363,0.827,0.812,0.827s0.812-0.371,0.812-0.827V14.62z"/>
</g>
</svg>
