<?xml version="1.0" encoding="utf-8"?>
<!-- Generator: Adobe Illustrator 16.0.0, SVG Export Plug-In . SVG Version: 6.00 Build 0)  -->
<!DOCTYPE svg PUBLIC "-//W3C//DTD SVG 1.1//EN" "http://www.w3.org/Graphics/SVG/1.1/DTD/svg11.dtd">
<svg version="1.1" id="Layer_1" xmlns="http://www.w3.org/2000/svg" xmlns:xlink="http://www.w3.org/1999/xlink" x="0px" y="0px"
	 width="32px" height="32px" viewBox="0 0 32 32" enable-background="new 0 0 32 32" xml:space="preserve">
<g>
	<path d="M23.992,22.683c-3.703-1.351-4.887-2.488-4.887-4.927c0-1.463,1.131-0.986,1.627-3.665
		c0.206-1.112,1.205-0.019,1.396-2.556c0-1.013-0.545-1.264-0.545-1.264s0.278-1.496,0.387-2.649C22.104,6.188,21.14,2.479,16,2.479
		c-5.14,0-6.104,3.708-5.969,5.143c0.108,1.153,0.385,2.649,0.385,2.649s-0.545,0.251-0.545,1.264
		c0.191,2.537,1.189,1.443,1.396,2.556c0.498,2.679,1.627,2.202,1.627,3.665c0,2.438-1.183,3.576-4.886,4.927
		c-3.715,1.354-6.129,2.732-6.129,3.675c0,0.94,0,3.163,0,3.163H16h14.121c0,0,0-2.223,0-3.163
		C30.121,25.415,27.709,24.036,23.992,22.683z"/>
</g>
</svg>
