<?xml version="1.0" encoding="utf-8"?>
<!-- Generator: Adobe Illustrator 16.0.0, SVG Export Plug-In . SVG Version: 6.00 Build 0)  -->
<!DOCTYPE svg PUBLIC "-//W3C//DTD SVG 1.1//EN" "http://www.w3.org/Graphics/SVG/1.1/DTD/svg11.dtd">
<svg version="1.1" xmlns="http://www.w3.org/2000/svg" xmlns:xlink="http://www.w3.org/1999/xlink" x="0px" y="0px" width="1000px"
	 height="600px" viewBox="0 0 1000 600" enable-background="new 0 0 1000 600" xml:space="preserve">
<g id="Layer_2">
</g>
<g id="Layer_4">
	<g>
	</g>
	<rect x="548.552" y="274.937" fill="#4E8EF7" width="17.809" height="17.809"/>
	<g>
		<g>
			<rect x="584.817" y="278.524" fill="#282D33" width="4" height="4"/>
		</g>
		<g>
			<path fill="#282D33" d="M580.134,282.524h-4.683v-4h4.683V282.524z M570.769,282.524h-4.684v-4h4.684V282.524z"/>
		</g>
		<g>
			<rect x="557.403" y="278.524" fill="#282D33" width="4" height="4"/>
		</g>
		<g>
			<path fill="#282D33" d="M561.403,273.842h-4v-4.683h4V273.842z M561.403,264.477h-4v-4.684h4V264.477z"/>
		</g>
		<g>
			<rect x="557.403" y="251.11" fill="#282D33" width="4" height="4"/>
		</g>
		<g>
			<path fill="#282D33" d="M580.134,255.11h-4.684v-4h4.684V255.11z M570.768,255.11h-4.683v-4h4.683V255.11z"/>
		</g>
		<g>
			<rect x="584.817" y="251.11" fill="#282D33" width="4" height="4"/>
		</g>
		<g>
			<path fill="#282D33" d="M588.817,273.842h-4v-4.684h4V273.842z M588.817,264.476h-4v-4.683h4V264.476z"/>
		</g>
	</g>
	<g>
		<g>
			<g>
				<path fill="#4FD696" d="M631.156,468.985h-67.182c-53.169,0-96.426-43.266-96.426-96.445v-26.016h40v26.016
					c0,31.124,25.312,56.445,56.426,56.445h67.182V468.985z"/>
			</g>
		</g>
	</g>
	<g>
		<path fill="#4FD696" d="M680.874,600V440.683c0-8.617-9.011-15.6-20.127-15.6h-28.645c0.04-0.393,0.07-0.787,0.07-1.185V389.95
			c0-7.32-6.776-13.248-15.131-13.248h-0.945c-8.357,0-15.132,5.928-15.132,13.248v33.948c0,0.397,0.03,0.792,0.07,1.185h-28.641
			c-11.115,0-20.131,6.982-20.131,15.6V600"/>
		<path fill="#4FD696" d="M635.339,431.351c0,1.828-1.484,3.312-3.312,3.312h-30.913c-1.829,0-3.312-1.484-3.312-3.312v-14.904
			c0-1.83,1.482-3.312,3.312-3.312h30.913c1.828,0,3.312,1.482,3.312,3.312V431.351z"/>
		<g>
			<path fill="#FFFFFF" d="M655.463,375.026c0,21.752-17.63,39.383-39.383,39.383l0,0c-21.752,0-39.383-17.631-39.383-39.383
				v-21.567c0-21.752,17.631-39.383,39.383-39.383l0,0c21.753,0,39.383,17.631,39.383,39.383V375.026z"/>
			<path fill="#282D33" d="M616.08,416.409c-22.818,0-41.383-18.564-41.383-41.383v-21.567c0-22.818,18.564-41.383,41.383-41.383
				c22.819,0,41.383,18.564,41.383,41.383v21.567C657.463,397.845,638.899,416.409,616.08,416.409z M616.08,316.076
				c-20.612,0-37.383,16.77-37.383,37.383v21.567c0,20.613,16.771,37.383,37.383,37.383c20.615,0,37.383-16.77,37.383-37.383
				v-21.567C653.463,332.846,636.695,316.076,616.08,316.076z"/>
		</g>
		<g>
			<path fill="#FFFFFF" d="M581.638,363.275c-4.182,0.437-11.004,3.933-11.004,8.231v9.934c0,4.302,6.822,7.798,11.004,8.231
				V363.275z"/>
			<path fill="#282D33" d="M583.638,391.89l-2.206-0.229c-4.593-0.477-12.798-4.299-12.798-10.221v-9.934
				c0-5.916,8.204-9.741,12.796-10.221l2.208-0.23V391.89z M579.638,365.732c-3.45,1.061-7.004,3.583-7.004,5.774v9.934
				c0,2.194,3.554,4.717,7.004,5.776V365.732z"/>
		</g>
		<g>
			<rect x="595.804" y="362.556" fill="#282D33" width="7.177" height="4"/>
		</g>
		<g>
			<rect x="625.613" y="362.556" fill="#282D33" width="7.177" height="4"/>
		</g>
		<g>
			<path fill="#FFFFFF" d="M607.606,395.652c1.889,3.279,4.982,5.427,8.484,5.427c3.506,0,6.598-2.147,8.485-5.427"/>
			<path fill="#282D33" d="M616.091,403.079c-4.079,0-7.899-2.403-10.218-6.429l3.467-1.996c1.596,2.771,4.119,4.425,6.751,4.425
				c2.633,0,5.157-1.654,6.753-4.425l3.467,1.996C623.992,400.676,620.172,403.079,616.091,403.079z"/>
		</g>
		<g>
			<path fill="#4E8EF7" d="M653.762,323.983h-4.577c1.53-2.662,2.004-5.401,1.068-7.814c-2.316-5.968-12.257-7.679-22.206-3.82
				c-1.121,0.434-2.184,0.929-3.204,1.459c0.625-2.125,0.646-4.218-0.102-6.139c-2.749-7.084-14.549-9.115-26.355-4.535
				c-11.66,4.522-18.951,13.795-16.489,20.85h-3.484c-4.573,0-8.281,3.707-8.281,8.28v34.55c0.142,0.354,0.275,0.709,0.423,1.055
				h11.117v-30.142c0-0.424,0.049-0.835,0.064-1.255c10.394,2.187,22.049,3.416,34.352,3.416c12.301,0,23.955-1.229,34.35-3.416
				c0.018,0.42,0.066,0.831,0.066,1.255v30.142h11.115c0.15-0.35,0.281-0.705,0.424-1.058v-34.547
				C662.042,327.69,658.335,323.983,653.762,323.983z"/>
			<path fill="#282D33" d="M662.935,369.868h-14.432v-30.966c-10.235,1.981-21.128,2.985-32.416,2.985
				c-11.29,0-22.181-1.004-32.416-2.985v30.966h-14.435l-0.521-1.211c-0.111-0.26-0.216-0.525-0.319-0.792l-0.266-0.669v-34.933
				c0-5.669,4.613-10.28,10.281-10.28h1.042c-0.593-7.621,6.812-16.294,18.208-20.714c4.358-1.691,8.891-2.585,13.108-2.585
				c7.909,0,13.829,3.089,15.835,8.261c0.439,1.13,0.674,2.314,0.701,3.546c0.007-0.003,0.014-0.006,0.014-0.006
				c3.713-1.439,7.571-2.2,11.163-2.2c6.798,0,11.894,2.677,13.634,7.16c0.789,2.032,0.824,4.252,0.124,6.538h1.521
				c5.668,0,10.28,4.611,10.28,10.28v34.936l-0.294,0.732c-0.094,0.243-0.189,0.486-0.293,0.727L662.935,369.868z M652.503,365.868
				h7.539v-33.604c0-3.463-2.816-6.28-6.28-6.28h-8.035l1.725-2.997c0.899-1.563,1.792-3.89,0.937-6.095
				c-1.103-2.841-4.897-4.606-9.904-4.606c-3.103,0-6.461,0.667-9.713,1.928c-0.981,0.38-1.964,0.828-3.005,1.369l-4.168,2.167
				l1.326-4.506c0.525-1.785,0.51-3.417-0.047-4.85c-1.387-3.575-5.912-5.709-12.106-5.709c-3.728,0-7.761,0.801-11.661,2.313
				c-10.549,4.092-17.423,12.312-15.323,18.326l0.927,2.659h-6.301c-3.463,0-6.281,2.817-6.281,6.28v33.604h7.54v-28.142
				c0-0.299,0.019-0.593,0.038-0.887c0.012-0.147,0.021-0.294,0.027-0.442l0.089-2.371l2.321,0.488
				c10.642,2.238,22.061,3.373,33.94,3.373c11.878,0,23.297-1.135,33.938-3.373l2.312-0.486l0.099,2.359
				c0.006,0.145,0.017,0.288,0.026,0.431c0.022,0.301,0.042,0.602,0.042,0.908V365.868z"/>
		</g>
		<g>
			<path fill="#FFFFFF" d="M610.087,355.858v24.773c0,1.598,1.297,2.897,2.898,2.897h5.314c1.6,0,2.897-1.3,2.897-2.897v-1.453"/>
			<path fill="#282D33" d="M618.3,385.529h-5.314c-2.701,0-4.898-2.197-4.898-4.897v-24.773h4v24.773
				c0,0.495,0.403,0.897,0.898,0.897h5.314c0.495,0,0.897-0.402,0.897-0.897v-1.453h4v1.453
				C623.197,383.332,621.001,385.529,618.3,385.529z"/>
		</g>
		<g>
			<rect x="607.606" y="420.861" fill="#282D33" width="4" height="12.695"/>
		</g>
		<g>
			<path fill="#FFFFFF" d="M650.447,371.051c0-4.292,3.479-7.775,7.776-7.775h0.648c4.292,0,7.777,3.483,7.777,7.775v9.444
				c0,4.296-3.485,7.776-7.777,7.776h-0.648c-3.18,0-5.91-1.905-7.117-4.636"/>
			<path fill="#282D33" d="M658.872,390.271h-0.648c-3.87,0-7.382-2.287-8.946-5.827l3.658-1.617
				c0.925,2.093,3.001,3.444,5.288,3.444h0.648c3.186,0,5.777-2.591,5.777-5.776v-9.444c0-3.185-2.592-5.775-5.777-5.775h-0.648
				c-3.186,0-5.776,2.591-5.776,5.775h-4c0-5.391,4.385-9.775,9.776-9.775h0.648c5.392,0,9.777,4.385,9.777,9.775v9.444
				C668.649,385.886,664.264,390.271,658.872,390.271z"/>
		</g>
	</g>
	<g>
		<g>
			<path fill="#FFFFFF" d="M301.054,600V455.006c0-9.799,8.978-17.743,20.049-17.743h87.974c11.072,0,20.043,7.944,20.043,17.743
				V600"/>
			<path fill="#282D33" d="M431.119,600h-4V455.006c0-8.681-8.094-15.743-18.043-15.743h-87.974
				c-9.952,0-18.049,7.062-18.049,15.743V600h-4V455.006c0-10.887,9.891-19.743,22.049-19.743h87.974
				c12.154,0,22.043,8.856,22.043,19.743V600z"/>
		</g>
		<g>
			<polygon fill="#FFFFFF" points="381.535,437.447 364.693,447.172 347.851,437.447 347.851,400.675 364.693,400.675 
				381.535,400.675 			"/>
			<path fill="#282D33" d="M364.693,449.481l-18.843-10.88v-39.927h37.685v39.927L364.693,449.481z M349.851,436.293l14.843,8.569
				l14.842-8.569v-33.618h-29.685V436.293z"/>
		</g>
		<polygon fill="#4E8EF7" points="344.961,462.989 364.622,449.993 346.512,439.536 		"/>
		<polygon fill="#4E8EF7" points="384.391,462.991 364.729,449.993 382.837,439.536 		"/>
		<g>
			<path fill="#FFFFFF" d="M413.594,388.307c0,4.295-3.481,7.778-7.775,7.778h-0.649c-4.297,0-7.774-3.483-7.774-7.778v-14.255
				c0-4.295,3.478-7.775,7.774-7.775h0.649c4.294,0,7.775,3.48,7.775,7.775V388.307z"/>
			<path fill="#282D33" d="M405.818,398.085h-0.649c-5.389,0-9.774-4.387-9.774-9.778v-14.255c0-5.391,4.385-9.775,9.774-9.775
				h0.649c5.391,0,9.775,4.385,9.775,9.775v14.255C415.594,393.698,411.209,398.085,405.818,398.085z M405.169,368.276
				c-3.184,0-5.774,2.591-5.774,5.775v14.255c0,3.187,2.591,5.778,5.774,5.778h0.649c3.185,0,5.775-2.592,5.775-5.778v-14.255
				c0-3.185-2.591-5.775-5.775-5.775H405.169z"/>
		</g>
		<g>
			<path fill="#FFFFFF" d="M404.47,389.616c0,21.752-17.633,39.383-39.382,39.383l0,0c-21.752,0-39.385-17.631-39.385-39.383
				v-31.503c0-21.749,17.633-39.38,39.385-39.38l0,0c21.749,0,39.382,17.631,39.382,39.38V389.616z"/>
			<path fill="#282D33" d="M365.088,430.999c-22.819,0-41.385-18.564-41.385-41.383v-31.503c0-22.817,18.565-41.38,41.385-41.38
				c22.818,0,41.382,18.562,41.382,41.38v31.503C406.47,412.435,387.906,430.999,365.088,430.999z M365.088,320.733
				c-20.614,0-37.385,16.769-37.385,37.38v31.503c0,20.613,16.771,37.383,37.385,37.383c20.612,0,37.382-16.77,37.382-37.383
				v-31.503C402.47,337.502,385.7,320.733,365.088,320.733z"/>
		</g>
		<g>
			<path fill="#4E8EF7" d="M351.025,316.596c-6.373,0-11.975,3.28-15.232,8.238h-6.255c-7.794,0-14.118,6.319-14.118,14.118v67.897
				h9.935v-47.197c0-5.488,4.451-9.937,9.938-9.937h5.795h48.854h9.107c10.064,0,18.217-8.156,18.217-18.216v-14.904H351.025z"/>
			<path fill="#282D33" d="M327.354,408.85H313.42v-69.897c0-8.888,7.23-16.118,16.118-16.118h5.211
				c3.813-5.179,9.818-8.238,16.276-8.238h68.24V331.5c0,11.147-9.069,20.216-20.217,20.216h-63.756
				c-4.377,0-7.938,3.561-7.938,7.937V408.85z M317.42,404.85h5.935v-45.197c0-6.582,5.355-11.937,11.938-11.937h63.756
				c8.942,0,16.217-7.274,16.217-16.216v-12.904h-64.24c-5.473,0-10.542,2.742-13.561,7.337l-0.593,0.901h-7.334
				c-6.682,0-12.118,5.437-12.118,12.118V404.85z"/>
		</g>
		<g>
			<path fill="#FFFFFF" d="M325.703,366.357c-3.908,0.406-10.283,3.675-10.283,7.694v14.255c0,4.021,6.375,7.29,10.283,7.696
				V366.357z"/>
			<path fill="#282D33" d="M327.703,398.222l-2.207-0.229c-4.334-0.45-12.076-4.072-12.076-9.686v-14.255
				c0-5.612,7.742-9.233,12.076-9.684l2.207-0.229V398.222z M323.703,368.839c-3.095,1.013-6.283,3.291-6.283,5.213v14.255
				c0,1.923,3.188,4.201,6.283,5.215V368.839z"/>
		</g>
		<g>
			<path fill="#FFFFFF" d="M356.76,404.634c1.893,3.28,4.984,5.428,8.486,5.428c3.504,0,6.596-2.147,8.486-5.428"/>
			<path fill="#282D33" d="M365.246,412.062c-4.077,0-7.896-2.403-10.219-6.429l3.465-1.998c1.6,2.771,4.124,4.427,6.754,4.427
				c2.631,0,5.156-1.654,6.754-4.427l3.465,1.998C373.145,409.658,369.325,412.062,365.246,412.062z"/>
		</g>
		<g>
			<path fill="#282D33" d="M342.902,391.083c-10.09,0-18.298-8.209-18.298-18.299v-8.318h36.597v8.318
				C361.201,382.874,352.992,391.083,342.902,391.083z M328.604,368.466v4.318c0,7.885,6.414,14.299,14.298,14.299
				c7.885,0,14.299-6.414,14.299-14.299v-4.318H328.604z"/>
		</g>
		<g>
			<path fill="#282D33" d="M388.141,391.083c-10.089,0-18.297-8.209-18.297-18.299v-8.318h36.594v8.318
				C406.438,382.874,398.229,391.083,388.141,391.083z M373.844,368.466v4.318c0,7.885,6.413,14.299,14.297,14.299
				s14.297-6.414,14.297-14.299v-4.318H373.844z"/>
		</g>
		<g>
			<rect x="342.331" y="373.284" fill="#282D33" width="6.02" height="4"/>
		</g>
		<g>
			<rect x="382.009" y="373.284" fill="#282D33" width="5.744" height="4"/>
		</g>
		<g>
			<rect x="359.172" y="364.466" fill="#282D33" width="14.904" height="4"/>
		</g>
	</g>
	<g>
		<path fill="#4E8EF7" d="M418.997,600v-80.69c0-7.315,6.885-13.248,15.381-13.248h84.6c8.494,0,15.383,5.933,15.383,13.248V600"/>
		<g>
			<path fill="#FFFFFF" d="M440.877,600v-74.868c0-6.4,4.274-11.586,9.545-11.586h52.51c5.273,0,9.546,5.186,9.546,11.586V600"/>
			<path fill="#282D33" d="M514.479,600h-4v-74.868c0-5.286-3.385-9.586-7.546-9.586h-52.51c-4.161,0-7.545,4.3-7.545,9.586V600h-4
				v-74.868c0-7.491,5.179-13.586,11.545-13.586h52.51c6.367,0,11.546,6.095,11.546,13.586V600z"/>
		</g>
		<g>
			<path fill="#FFFFFF" d="M476.678,533.857c11.948,0,21.667-9.72,21.667-21.667v-6.129h-43.334v6.129
				C455.012,524.138,464.731,533.857,476.678,533.857z"/>
			<path fill="#282D33" d="M476.678,535.857c-13.049,0-23.667-10.617-23.667-23.667v-8.129h47.334v8.129
				C500.346,525.24,489.729,535.857,476.678,535.857z M457.012,508.062v4.129c0,10.845,8.822,19.667,19.667,19.667
				c10.845,0,19.667-8.822,19.667-19.667v-4.129H457.012z"/>
		</g>
		<g>
			<path fill="#FFFFFF" d="M488.346,512.19c0,6.443-5.224,11.667-11.667,11.667l0,0c-6.443,0-11.667-5.224-11.667-11.667v-37.333
				c0-6.443,5.224-11.667,11.667-11.667l0,0c6.444,0,11.667,5.224,11.667,11.667V512.19z"/>
			<path fill="#282D33" d="M476.678,525.857c-7.536,0-13.667-6.131-13.667-13.667v-37.333c0-7.536,6.131-13.667,13.667-13.667
				c7.537,0,13.667,6.131,13.667,13.667v37.333C490.346,519.727,484.215,525.857,476.678,525.857z M476.678,465.19
				c-5.33,0-9.667,4.337-9.667,9.667v37.333c0,5.33,4.336,9.667,9.667,9.667c5.331,0,9.667-4.337,9.667-9.667v-37.333
				C486.346,469.527,482.009,465.19,476.678,465.19z"/>
		</g>
		<g>
			<ellipse fill="#4E8EF7" cx="441.652" cy="418.841" rx="27.601" ry="28.703"/>
			<path fill="#282D33" d="M441.653,449.544c-16.323,0-29.602-13.773-29.602-30.703c0-16.931,13.279-30.705,29.602-30.705
				c16.321,0,29.6,13.774,29.6,30.705C471.253,435.771,457.975,449.544,441.653,449.544z M441.653,392.136
				c-14.117,0-25.602,11.979-25.602,26.705c0,14.725,11.484,26.703,25.602,26.703c14.115,0,25.6-11.979,25.6-26.703
				C467.253,404.115,455.769,392.136,441.653,392.136z"/>
		</g>
		<g>
			<ellipse fill="#4E8EF7" cx="435.028" cy="450.151" rx="17.664" ry="18.371"/>
			<path fill="#282D33" d="M435.029,470.522c-10.843,0-19.665-9.139-19.665-20.371c0-11.233,8.822-20.372,19.665-20.372
				c10.842,0,19.664,9.139,19.664,20.372C454.692,461.384,445.871,470.522,435.029,470.522z M435.029,433.779
				c-8.637,0-15.665,7.345-15.665,16.372s7.028,16.371,15.665,16.371c8.636,0,15.664-7.344,15.664-16.371
				S443.665,433.779,435.029,433.779z"/>
		</g>
		<g>
			<ellipse fill="#FFFFFF" cx="438.341" cy="435.8" rx="17.664" ry="18.37"/>
			<path fill="#282D33" d="M438.341,456.17c-10.843,0-19.664-9.138-19.664-20.37s8.821-20.371,19.664-20.371
				s19.664,9.139,19.664,20.371S449.184,456.17,438.341,456.17z M438.341,419.429c-8.637,0-15.664,7.344-15.664,16.371
				c0,9.026,7.027,16.37,15.664,16.37s15.664-7.344,15.664-16.37C454.005,426.772,446.978,419.429,438.341,419.429z"/>
		</g>
		<g>
			<ellipse fill="#4E8EF7" cx="507.894" cy="450.151" rx="17.664" ry="18.371"/>
			<path fill="#282D33" d="M507.894,470.522c-10.843,0-19.664-9.139-19.664-20.371c0-11.233,8.821-20.372,19.664-20.372
				s19.664,9.139,19.664,20.372C527.558,461.384,518.736,470.522,507.894,470.522z M507.894,433.779
				c-8.637,0-15.664,7.345-15.664,16.372s7.027,16.371,15.664,16.371c8.638,0,15.664-7.344,15.664-16.371
				S516.531,433.779,507.894,433.779z"/>
		</g>
		<g>
			<path fill="#FFFFFF" d="M509.998,452.91c0,21.749-17.63,39.383-39.38,39.383l0,0c-21.75,0-39.38-17.634-39.38-39.383v-31.507
				c0-21.748,17.63-39.379,39.38-39.379l0,0c21.75,0,39.38,17.631,39.38,39.379V452.91z"/>
			<path fill="#282D33" d="M470.618,494.293c-22.817,0-41.38-18.564-41.38-41.383v-31.507c0-22.816,18.563-41.379,41.38-41.379
				c22.817,0,41.38,18.562,41.38,41.379v31.507C511.998,475.729,493.435,494.293,470.618,494.293z M470.618,384.024
				c-20.613,0-37.38,16.769-37.38,37.379v31.507c0,20.613,16.768,37.383,37.38,37.383c20.612,0,37.38-16.77,37.38-37.383v-31.507
				C507.998,400.793,491.23,384.024,470.618,384.024z"/>
		</g>
		<g>
			<path fill="#4E8EF7" d="M506.209,392.578l28.058,28.056l-5.076,5.074c-15.523,15.522-40.686,15.522-56.205,0l-35.073-35.07
				C457.448,373.178,487.452,373.821,506.209,392.578z"/>
			<path fill="#282D33" d="M501.087,439.35c-11.15,0-21.632-4.343-29.515-12.228l-36.569-36.565l1.577-1.41
				c9.479-8.472,21.716-13.137,34.458-13.137c13.819,0,26.812,5.382,36.586,15.154l29.472,29.47l-6.491,6.488
				C522.719,435.008,512.236,439.35,501.087,439.35z M440.856,390.753l33.543,33.541c7.129,7.13,16.606,11.056,26.688,11.056
				c10.081,0,19.56-3.926,26.689-11.056l3.661-3.66l-26.642-26.642c-9.017-9.017-21.007-13.982-33.758-13.982
				C459.99,380.01,449.354,383.81,440.856,390.753z"/>
		</g>
		<g>
			<path fill="#282D33" d="M464.917,438.452h-4c0-4.231-3.441-7.674-7.672-7.674c-4.23,0-7.671,3.442-7.671,7.674h-4
				c0-6.437,5.236-11.674,11.671-11.674C459.68,426.778,464.917,432.016,464.917,438.452z"/>
		</g>
		<g>
			<rect x="462.077" y="464.313" fill="#282D33" width="14.904" height="4"/>
		</g>
	</g>
	<g>
		<g>
			<g>
				<path fill="#4FD696" d="M220.342,538.146c-41.089,0-74.517-33.435-74.517-74.53v-67.858h40v67.858
					c0,19.04,15.484,34.53,34.517,34.53c19.004,0,34.467-15.49,34.467-34.53v-1.165h40v1.165
					C294.809,504.712,261.403,538.146,220.342,538.146z"/>
			</g>
		</g>
	</g>
	<g>
		<g>
			<g>
				<path fill="#4FD696" d="M344.81,600h-40v-54.167c0-12.973-10.55-23.526-23.517-23.526v-40c35.023,0,63.517,28.498,63.517,63.526
					V600z"/>
			</g>
		</g>
	</g>
	<g>
		<g>
			<path fill="#282D33" d="M181.089,391.323h-4v-3.9l1.525-0.373c1.285-0.313,2.473-0.952,3.445-1.85l9.991-11.624v-7.149
				l-0.275-0.109l0.275-1.447v-4.772c-1.896,0.078-3.416,1.645-3.416,3.56v9.319h-4v-9.319c0-4.17,3.393-7.562,7.563-7.562h3.724
				l0.012,0.152l0.117,0.009l0.02,1.707l0.124,1.866l-0.144,0.02v15.21l-11.17,12.979c-1.099,1.041-2.39,1.86-3.791,2.413V391.323z"
				/>
		</g>
		<g>
			<path fill="#FFFFFF" d="M208.725,364.724h2.8c0.346,0,0.623,0.282,0.623,0.636v4.517c0,0.354-0.277,0.639-0.623,0.639h-2.8"/>
			<path fill="#282D33" d="M211.524,372.515h-2.8v-4h1.422v-1.791h-1.422v-4h2.8c1.446,0,2.623,1.183,2.623,2.636v4.517
				C214.147,371.331,212.97,372.515,211.524,372.515z"/>
		</g>
		<g>
			<polygon fill="#282D33" points="141.094,372.506 139.446,372.506 128.655,367.614 139.447,362.724 141.094,362.724 
				141.094,366.724 140.31,366.724 138.344,367.614 140.311,368.506 141.094,368.506 			"/>
		</g>
		<rect x="143.327" y="363.104" fill="#4E8EF7" width="13.9" height="9.031"/>
		<rect x="188.311" y="363.104" fill="#4E8EF7" width="18.15" height="9.031"/>
		<g>
			<path fill="#FFFFFF" d="M194.05,372.589c-0.009,0,0.013,0.002,0,0.006v1.723l-10.545,12.269
				c-1.219,1.154-2.732,1.996-4.416,2.407v2.33"/>
			<path fill="#282D33" d="M181.089,391.323h-4v-3.9l1.525-0.373c1.285-0.313,2.473-0.952,3.445-1.85l9.805-11.407l0.187-1.356
				v-1.351l0.194-0.056l0.062-0.441h1.744v1.999l0.543-1.923l1.461,1.924l-0.004,0.007v2.463l-11.17,12.979
				c-1.099,1.041-2.39,1.86-3.791,2.413V391.323z"/>
		</g>
		<g>
			<path fill="#282D33" d="M162.876,391.323h-4v-3.047c-2.516-2.238-3.939-5.386-3.939-8.784v-16.997l0.186-3.852
				c-0.002-3.014,2.529-5.545,5.64-5.545c1.097,0,2.007,0.17,2.754,0.462c1.028-1.385,2.677-2.283,4.53-2.283
				c0.946,0,1.836,0.233,2.619,0.646c1.017-1.488,2.728-2.467,4.663-2.467c2.075,0,3.893,1.126,4.873,2.799
				c0.784-0.39,1.662-0.612,2.57-0.612c3.181,0,5.768,2.587,5.768,5.767v15.566h-4V357.41c0-0.974-0.793-1.767-1.768-1.767
				c-0.994,0-1.801,0.911-1.801,1.506h-4v-2.051c0-0.905-0.737-1.642-1.643-1.642c-0.906,0-1.643,0.736-1.643,1.642v1.822h-4
				c0-0.906-0.735-1.644-1.639-1.644c-0.905,0-1.642,0.737-1.642,1.644v0.909l-4-0.002c0-0.274-0.005-0.729-1.642-0.729
				c-0.905,0-1.642,0.737-1.642,1.643l-0.186,3.852l0.002,16.899c0,2.472,1.144,4.744,3.138,6.235l0.802,0.6V391.323z"/>
		</g>
	</g>
	<g>
		<g>
			<path fill="#4FD696" d="M308.721,476.85c0,15.761-12.776,28.539-28.539,28.539h-12.017c-15.759,0-28.538-12.778-28.538-28.539
				v-51.821c0-15.762,12.779-28.538,28.538-28.538h12.017c15.763,0,28.539,12.776,28.539,28.538V476.85z"/>
			<path fill="#4FD696" d="M280.182,507.389h-12.017c-16.838,0-30.538-13.7-30.538-30.539v-51.821
				c0-16.839,13.699-30.538,30.538-30.538h12.017c16.839,0,30.539,13.699,30.539,30.538v51.821
				C310.721,493.688,297.021,507.389,280.182,507.389z M268.165,398.49c-14.632,0-26.538,11.905-26.538,26.538v51.821
				c0,14.634,11.905,26.539,26.538,26.539h12.017c14.633,0,26.539-11.905,26.539-26.539v-51.821
				c0-14.633-11.906-26.538-26.539-26.538H268.165z"/>
		</g>
		<g>
			<path fill="#FFFFFF" d="M313.845,600v-70.636c0-22.29-18.072-40.361-40.362-40.361c-22.291,0-40.362,18.071-40.362,40.361V600"/>
			<path fill="#282D33" d="M315.845,600h-4v-70.636c0-21.152-17.209-38.361-38.362-38.361c-21.154,0-38.362,17.209-38.362,38.361
				V600h-4v-70.636c0-23.358,19.004-42.361,42.362-42.361s42.362,19.003,42.362,42.361V600z"/>
		</g>
		<g>
			<path fill="#FFFFFF" d="M319.113,449.062c0,6.75-5.475,12.222-12.227,12.222H241.46c-6.749,0-12.221-5.472-12.221-12.222l0,0
				c0-6.751,5.472-12.224,12.221-12.224h65.426C313.638,436.838,319.113,442.311,319.113,449.062L319.113,449.062z"/>
			<path fill="#282D33" d="M306.886,463.283H241.46c-7.842,0-14.221-6.38-14.221-14.222c0-7.843,6.379-14.224,14.221-14.224h65.426
				c7.845,0,14.227,6.381,14.227,14.224C321.113,456.903,314.73,463.283,306.886,463.283z M241.46,438.838
				c-5.636,0-10.221,4.586-10.221,10.224c0,5.637,4.585,10.222,10.221,10.222h65.426c5.639,0,10.227-4.585,10.227-10.222
				c0-5.638-4.588-10.224-10.227-10.224H241.46z"/>
		</g>
		<g>
			<path fill="#FFFFFF" d="M273.309,506.514c-7.051,0-12.768-5.716-12.768-12.767v-68.344c0-7.05,5.717-12.767,12.768-12.767l0,0
				c7.05,0,12.767,5.717,12.767,12.767v68.344C286.075,500.798,280.358,506.514,273.309,506.514L273.309,506.514z"/>
			<path fill="#282D33" d="M273.309,508.514c-8.143,0-14.768-6.624-14.768-14.767v-68.344c0-8.143,6.625-14.767,14.768-14.767
				s14.767,6.624,14.767,14.767v68.344C288.075,501.89,281.451,508.514,273.309,508.514z M273.309,414.637
				c-5.938,0-10.768,4.83-10.768,10.767v68.344c0,5.937,4.83,10.767,10.768,10.767c5.936,0,10.767-4.83,10.767-10.767v-68.344
				C284.075,419.467,279.245,414.637,273.309,414.637z"/>
		</g>
		<g>
			<path fill="#FFFFFF" d="M308.721,402.497v51.821c0,15.761-12.776,28.539-28.539,28.539h-12.017
				c-15.759,0-28.538-12.778-28.538-28.539v-51.821"/>
			<path fill="#282D33" d="M280.182,484.857h-12.017c-16.838,0-30.538-13.7-30.538-30.539v-51.821h4v51.821
				c0,14.634,11.905,26.539,26.538,26.539h12.017c14.633,0,26.539-11.905,26.539-26.539v-51.821h4v51.821
				C310.721,471.157,297.021,484.857,280.182,484.857z"/>
		</g>
		<g>
			<path fill="#4FD696" d="M280.182,373.959h-12.017c-15.759,0-28.538,12.777-28.538,28.538v34.175
				c14.25-1.294,27.814-14.592,34.546-33.626c6.733,19.034,20.296,32.332,34.548,33.627v-34.176
				C308.721,386.736,295.944,373.959,280.182,373.959z"/>
			<path fill="#4FD696" d="M310.721,438.863l-2.181-0.198c-13.756-1.25-26.868-12.9-34.367-30.157
				c-7.498,17.257-20.61,28.907-34.365,30.156l-2.181,0.197v-36.364c0-16.839,13.699-30.538,30.538-30.538h12.017
				c16.839,0,30.539,13.699,30.539,30.538V438.863z M274.173,397.048l1.886,5.331c6.155,17.404,18.021,29.689,30.662,32.003v-31.885
				c0-14.633-11.906-26.538-26.539-26.538h-12.017c-14.632,0-26.538,11.905-26.538,26.538v31.885
				c12.642-2.313,24.504-14.599,30.66-32.003L274.173,397.048z"/>
		</g>
		<g>
			<path fill="#282D33" d="M267.844,444.316h-4c0-1.546-2.26-3.269-5.503-3.269c-3.245,0-5.507,1.723-5.507,3.269h-4
				c0-4.076,4.176-7.269,9.507-7.269C263.669,437.048,267.844,440.24,267.844,444.316z"/>
		</g>
		<g>
			<path fill="#282D33" d="M296.253,444.316h-4c0-1.546-2.26-3.269-5.503-3.269c-3.245,0-5.505,1.723-5.505,3.269h-4
				c0-4.076,4.175-7.269,9.505-7.269C292.079,437.048,296.253,440.24,296.253,444.316z"/>
		</g>
		<g>
			<path fill="#FFFFFF" d="M261.928,455.069v5.257c0,4.148,3.362,7.511,7.511,7.511h5.258c4.147,0,7.509-3.362,7.509-7.511v-5.257
				H261.928z"/>
			<path fill="#282D33" d="M274.697,469.837h-5.258c-5.244,0-9.511-4.267-9.511-9.511v-7.257h24.278v7.257
				C284.206,465.57,279.94,469.837,274.697,469.837z M263.928,457.069v3.257c0,3.039,2.472,5.511,5.511,5.511h5.258
				c3.038,0,5.509-2.472,5.509-5.511v-3.257H263.928z"/>
		</g>
	</g>
	<g>
		<g>
			<rect x="361.403" y="457.524" fill="#282D33" width="4" height="2"/>
		</g>
		<g>
			<path fill="#282D33" d="M365.403,575.774h-4v-3.875h4V575.774z M365.403,564.149h-4v-3.875h4V564.149z M365.403,552.524h-4
				v-3.875h4V552.524z M365.403,540.899h-4v-3.875h4V540.899z M365.403,529.274h-4v-3.875h4V529.274z M365.403,517.649h-4v-3.875h4
				V517.649z M365.403,506.024h-4v-3.875h4V506.024z M365.403,494.399h-4v-3.875h4V494.399z M365.403,482.774h-4v-3.875h4V482.774z
				 M365.403,471.149h-4v-3.875h4V471.149z"/>
		</g>
		<g>
			<rect x="361.403" y="583.524" fill="#282D33" width="4" height="2"/>
		</g>
	</g>
	<g>
		<rect x="396.403" y="505.524" fill="#282D33" width="4" height="94.476"/>
	</g>
	<g>
		<g>
			<path fill="#282D33" d="M478.73,350.112h-4v-10.231c-3.078-2.661-4.823-6.454-4.823-10.558v-27.207h4v27.207
				c0,3.174,1.465,6.09,4.021,8l0.803,0.6V350.112z"/>
		</g>
		<g>
			<path fill="#282D33" d="M501.047,350.112h-4v-10.718l1.528-0.372c1.657-0.403,3.188-1.229,4.438-2.391l12.368-14.392v-9.122
				l-0.104-0.033l0.104-1.543v-6.438h-0.268c-2.658,0-4.82,2.16-4.82,4.816v9.223l-0.094,2.28l-3.998-0.081l-0.023-19.225l4-0.005
				v0.503c1.409-0.954,3.108-1.512,4.936-1.512h4.155l0.013,0.167l0.1,0.009l0.027,1.709l0.109,1.884l-0.137,0.016v5.301
				l0.066,0.021l-0.066,1.622v11.891l-13.544,15.745c-1.379,1.308-3.013,2.32-4.79,2.976V350.112z"/>
		</g>
		<g>
			<path fill="#282D33" d="M482.853,302.274h-4v-16.197c0-1.363-1.11-2.473-2.475-2.473c-1.362,0-2.47,1.109-2.47,2.473v16.197h-4
				v-16.197c0-3.569,2.902-6.473,6.47-6.473c3.57,0,6.475,2.903,6.475,6.473V302.274z"/>
		</g>
		<g>
			<path fill="#282D33" d="M491.954,302.274h-4v-25.91c0-1.363-1.11-2.473-2.475-2.473c-1.362,0-2.47,1.109-2.47,2.473v25.91h-4
				v-25.91c0-3.569,2.902-6.473,6.47-6.473c3.571,0,6.475,2.903,6.475,6.473V302.274z"/>
		</g>
		<g>
			<path fill="#282D33" d="M501.054,302.274h-4v-30.49c0-1.363-1.108-2.473-2.472-2.473c-1.364,0-2.475,1.109-2.475,2.473v30.49h-4
				v-30.49c0-3.569,2.904-6.473,6.475-6.473c3.568,0,6.472,2.903,6.472,6.473V302.274z"/>
		</g>
		<g>
			<path fill="#282D33" d="M510.156,302.274h-4v-22.75c0-1.363-1.111-2.473-2.477-2.473c-1.361,0-2.471,1.109-2.471,2.473v22.75h-4
				v-22.75c0-3.569,2.903-6.473,6.47-6.473c3.571,0,6.477,2.903,6.477,6.473V302.274z"/>
		</g>
	</g>
	<g>
		<rect x="561.166" y="438.096" fill="#282D33" width="109.572" height="4"/>
	</g>
	<g>
		<rect x="561.166" y="461.429" fill="#282D33" width="109.572" height="4"/>
	</g>
	<g>
		<rect x="613.952" y="431.975" fill="#282D33" width="4" height="168.024"/>
	</g>
	<g>
		<path fill="#4E8EF7" d="M659.001,600V465.536c0-8.772,9.478-15.883,21.174-15.883h92.919c11.694,0,21.17,7.11,21.17,15.883V600"/>
		<g>
			<g>
				<g>
					<path fill="#4E8EF7" d="M807.313,593.2h-15.952v-40h15.952c17.55,0,31.828-14.271,31.828-31.814
						c0-17.517-14.278-31.768-31.828-31.768h-63.168v-40h63.168c39.606,0,71.828,32.194,71.828,71.768
						C879.142,560.984,846.92,593.2,807.313,593.2z"/>
				</g>
			</g>
		</g>
		<g>
			<g>
				<g>
					<path fill="#282D33" d="M805.143,555.384h-14.171v-4h14.171c16.542,0,29.999-13.453,29.999-29.988
						c0-16.521-13.457-29.961-29.999-29.961h-38.997v-4h38.997c18.748,0,33.999,15.234,33.999,33.961
						C839.142,540.137,823.891,555.384,805.143,555.384z"/>
				</g>
			</g>
		</g>
		<g>
			<g>
				<path fill="#FFFFFF" d="M677.562,379.861v18.279c0,2.969,2.378,5.376,5.312,5.376c2.935,0,5.312-2.407,5.312-5.376v-18.279
					H677.562z"/>
				<path fill="#282D33" d="M682.874,405.517c-4.031,0-7.312-3.309-7.312-7.376v-20.279h14.624v20.279
					C690.187,402.208,686.906,405.517,682.874,405.517z M679.562,381.861v16.279c0,1.861,1.484,3.376,3.312,3.376
					c1.826,0,3.312-1.515,3.312-3.376v-16.279H679.562z"/>
			</g>
			<g>
				<path fill="#FFFFFF" d="M765.744,379.861v18.279c0,2.969,2.378,5.376,5.312,5.376s5.312-2.407,5.312-5.376v-18.279H765.744z"/>
				<path fill="#282D33" d="M771.056,405.517c-4.031,0-7.312-3.309-7.312-7.376v-20.279h14.624v20.279
					C778.368,402.208,775.088,405.517,771.056,405.517z M767.744,381.861v16.279c0,1.861,1.486,3.376,3.312,3.376
					s3.312-1.515,3.312-3.376v-16.279H767.744z"/>
			</g>
			<g>
				<polygon fill="#FFFFFF" points="753.965,464.937 753.965,451.246 699.241,451.246 699.241,464.937 726.603,480.925 				"/>
				<path fill="#282D33" d="M726.603,483.241l-29.361-17.157v-16.838h58.724v16.838L726.603,483.241z M701.241,463.789
					l25.361,14.819l25.362-14.819v-10.543h-50.724V463.789z"/>
			</g>
			<g>
				<polygon fill="#FFFFFF" points="742.808,458.418 726.603,467.889 710.396,458.418 710.396,422.603 726.603,422.603 
					742.808,422.603 				"/>
				<path fill="#282D33" d="M726.603,470.205l-18.206-10.64v-38.963h36.411v38.963L726.603,470.205z M712.396,457.271l14.206,8.302
					l14.205-8.302v-32.668h-28.411V457.271z"/>
			</g>
			<g>
				<path fill="#FFFFFF" d="M765.076,355.603c0-12.583-10.078-22.786-22.515-22.786H710.29c-12.434,0-22.515,10.203-22.515,22.786
					l-0.069,64.051l21.337,24.828h34.767l21.336-24.828L765.076,355.603z"/>
				<path fill="#282D33" d="M744.727,446.481h-36.602l-22.42-26.088l0.07-64.793c0-13.665,10.997-24.784,24.515-24.784h32.271
					c13.518,0,24.515,11.119,24.515,24.786l0.07,64.791L744.727,446.481z M709.961,442.481h32.931l20.253-23.568l-0.068-63.309
					c0-11.464-9.202-20.788-20.515-20.788H710.29c-11.312,0-20.515,9.324-20.515,20.786l-0.068,63.311L709.961,442.481z"/>
			</g>
			<g>
				<path fill="#4E8EF7" d="M726.354,402.979c-14.759,0-27.573,8.868-34.04,21.885l16.86,19.618h34.768l16.594-19.313
					C754.12,411.989,741.226,402.979,726.354,402.979z"/>
				<path fill="#282D33" d="M744.861,446.481h-36.604l-18.322-21.32l0.59-1.188c7.048-14.184,20.775-22.995,35.83-22.995
					c15.192,0,28.979,8.934,35.979,23.314l0.576,1.182L744.861,446.481z M710.093,442.481h32.932l15.122-17.603
					c-6.486-12.31-18.556-19.9-31.792-19.9c-13.108,0-25.118,7.479-31.643,19.604L710.093,442.481z"/>
			</g>
			<g>
				<path fill="#FFFFFF" d="M717.187,419.261c-0.035,0.323-0.058,0.649-0.058,0.98c0,4.875,3.902,8.821,8.716,8.821h1.16
					c4.815,0,8.717-3.946,8.717-8.821c0-0.331-0.02-0.657-0.055-0.98H717.187z"/>
				<path fill="#282D33" d="M727.005,431.062h-1.16c-5.908,0-10.716-4.854-10.716-10.821c0-0.404,0.027-0.802,0.068-1.196
					l0.195-1.784h22.068l0.195,1.784c0.041,0.395,0.065,0.792,0.065,1.196C737.722,426.208,732.914,431.062,727.005,431.062z
					 M719.205,421.261c0.485,3.279,3.278,5.802,6.64,5.802h1.16c3.362,0,6.155-2.522,6.642-5.802H719.205z"/>
			</g>
			<g>
				<g>
					<rect x="702.255" y="378.396" fill="#282D33" width="4.737" height="4"/>
				</g>
				<g>
					<rect x="742.001" y="378.396" fill="#282D33" width="4.737" height="4"/>
				</g>
			</g>
			<g>
				<polygon fill="#282D33" points="735.863,395.301 716.989,395.301 716.989,372.182 701.467,372.182 701.467,368.182 
					720.989,368.182 720.989,391.301 731.863,391.301 731.863,370.182 735.863,370.182 				"/>
			</g>
		</g>
		<g>
			<rect x="685.738" y="505.524" fill="#282D33" width="4" height="94.476"/>
		</g>
	</g>
	<g>
		<g>
			<g>
				<rect x="759.279" y="510.751" fill="#282D33" width="4" height="6.734"/>
			</g>
			<g>
				
					<rect x="767.264" y="513.384" transform="matrix(0.8661 0.4999 -0.4999 0.8661 361.3597 -315.3631)" fill="#282D33" width="4.001" height="6.732"/>
			</g>
			<g>
				
					<rect x="772.866" y="519.656" transform="matrix(0.5001 0.8659 -0.8659 0.5001 840.2424 -409.5521)" fill="#282D33" width="3.999" height="6.733"/>
			</g>
			<g>
				<rect x="773.213" y="529.257" fill="#282D33" width="6.734" height="4"/>
			</g>
			<g>
				
					<rect x="770.581" y="537.242" transform="matrix(0.8659 0.5002 -0.5002 0.8659 373.5318 -314.8331)" fill="#282D33" width="6.735" height="4"/>
			</g>
			<g>
				
					<rect x="743.854" y="534.286" transform="matrix(0.4999 0.8661 -0.8661 0.4999 838.6324 -377.0937)" fill="#282D33" width="4.001" height="6.732"/>
			</g>
			<g>
				<rect x="740.772" y="527.421" fill="#282D33" width="6.734" height="4"/>
			</g>
			<g>
				
					<rect x="743.405" y="519.433" transform="matrix(0.8659 0.5001 -0.5001 0.8659 360.8911 -303.5861)" fill="#282D33" width="6.733" height="3.999"/>
			</g>
			<g>
				
					<rect x="749.676" y="513.832" transform="matrix(0.4997 0.8662 -0.8662 0.4997 823.5988 -394.2118)" fill="#282D33" width="6.735" height="4"/>
			</g>
		</g>
		<g>
			<path fill="#FFFFFF" d="M788.892,581.897h-13.528c-1.992,2.672-5.166,4.406-8.75,4.406h-7.305h-10.454h-0.537l-0.003-0.023
				h-4.352c-2.738,0-4.959-2.221-4.959-4.957c0-2.74,2.221-4.959,4.959-4.959h-3.968c-2.74,0-4.959-2.223-4.959-4.959
				c0-2.738,2.219-4.959,4.959-4.959h-1.322c-2.738,0-4.958-2.221-4.958-4.959c0-2.736,2.22-4.957,4.958-4.957h-2.644
				c-2.738,0-4.957-2.221-4.957-4.959s2.219-4.957,4.957-4.957h13.883c0.285,0,0.563,0.027,0.836,0.074h5.556l-1.745-6.164v-6.988
				c0-3.43,2.78-6.211,6.214-6.211h2.066c0.084,0,0.17,0.01,0.258,0.014v9.506l2.407,3.393l9.027,9.863
				c1.292,1.361,2.23,3.049,2.69,4.93h11.67"/>
			<path fill="#282D33" d="M766.613,588.304l-22.65-0.023c-3.837,0-6.959-3.121-6.959-6.957c0-1.193,0.302-2.318,0.834-3.301
				c-2.784-0.91-4.802-3.533-4.802-6.617c0-1.631,0.564-3.133,1.508-4.32c-1.716-1.269-2.829-3.306-2.829-5.598
				c0-1.378,0.403-2.664,1.098-3.746c-2.222-1.163-3.74-3.492-3.74-6.17c0-3.836,3.12-6.957,6.957-6.957h13.883
				c0.329,0,0.655,0.024,0.994,0.074h2.753l-1.101-3.887v-7.266c0-4.527,3.685-8.211,8.214-8.211h2.066
				c0.098,0,0.197,0.005,0.299,0.013l1.858,0.131l0.101,1.87v8.868l1.966,2.771l8.945,9.771c1.162,1.225,2.077,2.688,2.683,4.28
				h10.201v4h-13.24l-0.372-1.525c-0.368-1.507-1.128-2.899-2.199-4.028l-9.207-10.082l-2.776-3.912v-8.157h-0.324
				c-2.323,0-4.214,1.889-4.214,4.211v6.711l2.389,8.441l-8.538-0.029c-0.179-0.03-0.339-0.045-0.497-0.045h-13.883
				c-1.633,0-2.957,1.326-2.957,2.957c0,1.632,1.324,2.959,2.957,2.959h2.644v4c-1.631,0-2.958,1.326-2.958,2.957
				c0,1.632,1.327,2.959,2.958,2.959h1.322v4c-1.632,0-2.959,1.327-2.959,2.959s1.327,2.959,2.959,2.959h3.968v4
				c-1.633,0-2.959,1.327-2.959,2.959c0,1.631,1.326,2.957,2.959,2.957l22.65,0.023c2.834,0,5.44-1.312,7.147-3.603l0.601-0.804
				h14.53v4h-12.573C773.861,586.71,770.377,588.304,766.613,588.304z"/>
		</g>
	</g>
	<g>
		<g>
			<g>
				<rect x="817.173" y="410.613" fill="#282D33" width="18.04" height="4"/>
			</g>
			<g>
				<rect x="838.648" y="410.613" fill="#282D33" width="6.014" height="4"/>
			</g>
		</g>
		<g>
			<rect x="833.432" y="401.564" fill="#282D33" width="27.633" height="4"/>
		</g>
	</g>
	<g>
		<polygon fill="#4FD696" points="691.917,280.328 695.222,287.021 702.609,288.096 697.264,293.307 698.525,300.666 
			691.917,297.191 685.311,300.666 686.572,293.307 681.225,288.096 688.613,287.021 		"/>
		<path fill="#4FD696" d="M682.656,304.322l1.767-10.317l-7.497-7.306l10.359-1.506l4.632-9.384l4.633,9.384l10.357,1.506
			l-7.495,7.306l1.77,10.317l-9.265-4.871L682.656,304.322z M691.917,294.932l3.952,2.078l-0.754-4.401l3.195-3.116l-4.417-0.643
			l-1.977-4.003l-1.976,4.003l-4.419,0.643l3.197,3.116l-0.755,4.401L691.917,294.932z"/>
	</g>
	<g>
		<g>
			<g>
				<rect x="208.337" y="284.835" fill="#282D33" width="21.849" height="4"/>
			</g>
			<g>
				<rect x="216.66" y="276.787" fill="#282D33" width="21.848" height="4"/>
			</g>
			<g>
				<rect x="205.218" y="276.787" fill="#282D33" width="7.28" height="4"/>
			</g>
			<g>
				<rect x="196.894" y="284.835" fill="#282D33" width="7.282" height="4"/>
			</g>
		</g>
	</g>
	<g>
		<g>
			<g>
				<rect x="885.188" y="366.239" fill="#282D33" width="19.848" height="4"/>
			</g>
			<g>
				<rect x="871.746" y="366.239" fill="#282D33" width="7.283" height="4"/>
			</g>
		</g>
		<g>
			<g>
				<rect x="885.188" y="353.863" fill="#282D33" width="19.848" height="4"/>
			</g>
			<g>
				<rect x="871.746" y="353.863" fill="#282D33" width="7.283" height="4"/>
			</g>
		</g>
	</g>
	<g>
		<path fill="#282D33" d="M912.881,500.86c-2.818,0-4.088-2.339-5.013-4.046c-0.474-0.871-1.06-1.954-1.497-1.954
			s-1.025,1.083-1.497,1.954c-0.927,1.707-2.194,4.046-5.011,4.046c-2.82,0-4.09-2.339-5.018-4.047
			c-0.496-0.915-1.06-1.953-1.498-1.953c-0.436,0-1.022,1.083-1.495,1.953c-0.927,1.708-2.194,4.047-5.012,4.047
			c-2.819,0-4.089-2.339-5.016-4.046c-0.497-0.916-1.062-1.954-1.499-1.954c-0.439,0-1.004,1.038-1.501,1.954
			c-0.929,1.708-2.198,4.046-5.018,4.046s-4.09-2.338-5.018-4.045c-0.497-0.917-1.062-1.955-1.502-1.955v-4
			c2.819,0,4.089,2.338,5.018,4.045c0.497,0.917,1.062,1.955,1.502,1.955s1.005-1.039,1.502-1.955
			c0.929-1.707,2.197-4.045,5.017-4.045c2.818,0,4.088,2.338,5.015,4.046c0.497,0.916,1.061,1.954,1.5,1.954
			c0.437,0,1.022-1.083,1.496-1.953c0.925-1.708,2.194-4.047,5.011-4.047c2.818,0,4.088,2.338,5.016,4.045
			c0.496,0.917,1.06,1.955,1.5,1.955c0.436,0,1.022-1.083,1.495-1.953c0.926-1.708,2.194-4.047,5.013-4.047
			c2.817,0,4.087,2.339,5.013,4.046c0.473,0.871,1.06,1.954,1.497,1.954V500.86z"/>
	</g>
	<g>
		<path fill="#4FD696" d="M453.894,274.712c0,1.018-0.824,1.842-1.843,1.842h-3.57v6.914l-8.747-6.914h-11.646
			c-1.02,0-1.843-0.824-1.843-1.842v-16.107c0-1.018,0.824-1.846,1.843-1.846h23.963c1.019,0,1.843,0.828,1.843,1.846V274.712z"/>
	</g>
	<g>
		<g>
			<path fill="#282D33" d="M414.323,297.932v-9.043h-1.57c-2.119,0-3.842-1.724-3.842-3.843v-16.107c0-2.12,1.723-3.845,3.842-3.845
				h23.964c2.119,0,3.843,1.725,3.843,3.845v16.107c0,2.119-1.724,3.843-3.843,3.843h-10.95L414.323,297.932z M412.911,284.889
				h5.412v4.783l6.053-4.783h12.184v-15.795h-23.648V284.889z"/>
		</g>
	</g>
	<g>
		<g>
			<path fill="#282D33" d="M797.376,318.535c-3.936,0-7.137-3.201-7.137-7.136s3.201-7.135,7.137-7.135
				c3.935,0,7.134,3.2,7.134,7.135S801.311,318.535,797.376,318.535z M797.376,308.265c-1.729,0-3.137,1.406-3.137,3.135
				c0,1.729,1.407,3.136,3.137,3.136c1.729,0,3.134-1.406,3.134-3.136C800.51,309.671,799.104,308.265,797.376,308.265z"/>
		</g>
		<g>
			<g>
				<path fill="#282D33" d="M825.802,303.28c-3.934,0-7.134-3.2-7.134-7.135s3.2-7.135,7.134-7.135c3.935,0,7.136,3.2,7.136,7.135
					S829.736,303.28,825.802,303.28z M825.802,293.011c-1.728,0-3.134,1.406-3.134,3.135s1.406,3.135,3.134,3.135
					c1.729,0,3.136-1.406,3.136-3.135S827.531,293.011,825.802,293.011z"/>
			</g>
			<g>
				<path fill="#282D33" d="M825.802,333.792c-3.934,0-7.134-3.201-7.134-7.137c0-3.933,3.2-7.133,7.134-7.133
					c3.935,0,7.136,3.2,7.136,7.133C832.938,330.591,829.736,333.792,825.802,333.792z M825.802,323.522
					c-1.728,0-3.134,1.405-3.134,3.133c0,1.729,1.406,3.137,3.134,3.137c1.729,0,3.136-1.407,3.136-3.137
					C828.938,324.928,827.531,323.522,825.802,323.522z"/>
			</g>
		</g>
		<g>
			<g>
				
					<rect x="800.878" y="316.68" transform="matrix(0.866 0.5001 -0.5001 0.866 268.0914 -363.0414)" fill="#282D33" width="21.05" height="4.001"/>
			</g>
			<g>
				
					<rect x="809.403" y="293.592" transform="matrix(0.4999 0.8661 -0.8661 0.4999 669.1543 -550.6498)" fill="#282D33" width="4.001" height="21.05"/>
			</g>
		</g>
	</g>
	<path fill="#4E8EF7" d="M295.554,308.504h-2.311c-0.537,0-1.114-0.414-1.28-0.923l-0.432-1.043c-0.238-0.479-0.125-1.182,0.25-1.56
		l1.632-1.633c0.382-0.376,0.382-0.997,0-1.374l-2.519-2.527c-0.381-0.377-1-0.377-1.378,0l-1.633,1.632
		c-0.382,0.38-1.081,0.494-1.558,0.257l-1.044-0.432c-0.509-0.17-0.923-0.747-0.923-1.283v-2.308c0-0.536-0.438-0.976-0.975-0.976
		h-3.569c-0.538,0-0.976,0.439-0.976,0.976v2.308c0,0.536-0.414,1.113-0.922,1.283l-1.045,0.432
		c-0.476,0.237-1.181,0.123-1.558-0.257l-1.631-1.632c-0.379-0.377-0.997-0.377-1.375,0l-2.524,2.527
		c-0.382,0.377-0.382,0.998,0,1.374l1.633,1.633c0.374,0.378,0.489,1.08,0.251,1.56l-0.429,1.043
		c-0.17,0.509-0.748,0.923-1.281,0.923h-2.312c-0.534,0-0.974,0.438-0.974,0.975v3.571c0,0.531,0.44,0.971,0.974,0.971h2.312
		c0.533,0,1.111,0.414,1.281,0.922l0.429,1.045c0.238,0.48,0.123,1.182-0.251,1.56l-1.633,1.632c-0.382,0.377-0.382,0.998,0,1.375
		l2.524,2.527c0.378,0.375,0.996,0.375,1.375,0l1.631-1.633c0.377-0.379,1.082-0.494,1.558-0.254l1.045,0.43
		c0.508,0.173,0.922,0.746,0.922,1.283v2.309c0,0.535,0.438,0.973,0.976,0.973h3.569c0.536,0,0.975-0.438,0.975-0.973v-2.309
		c0-0.537,0.414-1.11,0.923-1.283l1.044-0.43c0.477-0.24,1.176-0.125,1.558,0.254l1.633,1.633c0.378,0.375,0.997,0.375,1.378,0
		l2.519-2.527c0.382-0.377,0.382-0.998,0-1.375l-1.632-1.632c-0.375-0.378-0.488-1.079-0.25-1.56l0.432-1.045
		c0.167-0.508,0.743-0.922,1.28-0.922h2.311c0.535,0,0.972-0.439,0.972-0.971v-3.571
		C296.525,308.942,296.089,308.504,295.554,308.504z M281.598,315.968c-2.597,0-4.703-2.109-4.703-4.706
		c0-2.599,2.106-4.704,4.703-4.704c2.599,0,4.707,2.105,4.707,4.704C286.305,313.858,284.197,315.968,281.598,315.968z"/>
	<g>
		<g>
			<g>
				<rect x="111.546" y="424.517" fill="#282D33" width="29.157" height="4"/>
			</g>
			<g>
				<rect x="146.255" y="424.517" fill="#282D33" width="9.719" height="4"/>
			</g>
		</g>
		<g>
			<rect x="161.056" y="424.517" fill="#282D33" width="5.076" height="4"/>
		</g>
	</g>
	<g>
		<g>
			<rect x="342.744" y="256.525" fill="#282D33" width="5.767" height="4"/>
		</g>
		<g>
			
				<rect x="338.659" y="247.714" transform="matrix(0.8661 0.4999 -0.4999 0.8661 170.9026 -136.7401)" fill="#282D33" width="4.001" height="5.766"/>
		</g>
		<g>
			
				<rect x="328.426" y="248.937" transform="matrix(0.4999 0.8661 -0.8661 0.4999 383.0419 -161.4453)" fill="#282D33" width="5.767" height="4.001"/>
		</g>
		<g>
			<rect x="324.044" y="257.205" fill="#282D33" width="5.769" height="4"/>
		</g>
		<g>
			
				<rect x="329.896" y="264.248" transform="matrix(0.8661 0.4999 -0.4999 0.8661 177.9948 -130.1451)" fill="#282D33" width="4.001" height="5.767"/>
		</g>
		<g>
			
				<rect x="338.362" y="264.793" transform="matrix(0.5 0.866 -0.866 0.5 401.6866 -162.1293)" fill="#282D33" width="5.769" height="4.001"/>
		</g>
	</g>
	<g>
		<g>
			<rect x="899.122" y="428.845" fill="#282D33" width="4" height="6.317"/>
		</g>
		<g>
			
				<rect x="890.402" y="434.37" transform="matrix(0.8659 0.5001 -0.5001 0.8659 338.0385 -388.4114)" fill="#282D33" width="6.317" height="3.999"/>
		</g>
		<g>
			
				<rect x="891.56" y="441.945" transform="matrix(0.4999 0.8661 -0.8661 0.4999 832.3426 -551.3001)" fill="#282D33" width="4.001" height="6.316"/>
		</g>
		<g>
			<rect x="899.122" y="446.31" fill="#282D33" width="4" height="6.316"/>
		</g>
		<g>
			
				<rect x="905.526" y="443.102" transform="matrix(0.866 0.5 -0.5 0.866 344.2563 -394.686)" fill="#282D33" width="6.317" height="4.001"/>
		</g>
		<g>
			
				<rect x="906.684" y="433.211" transform="matrix(0.4999 0.8661 -0.8661 0.4999 832.3427 -568.7661)" fill="#282D33" width="4.001" height="6.317"/>
		</g>
	</g>
	<g>
		<path fill="#4FD696" d="M955.164,455.047c-2.115,0.028-3.951,1.214-4.949,2.968c-1.046-1.729-2.909-2.871-5.026-2.848
			c-3.219,0.013-5.792,2.873-5.745,6.391c0.007,0.684,0.117,1.334,0.31,1.93c0.451,1.983,3.716,4.88,6.735,7.228
			c1.464,1.133,3.933,2.815,3.933,2.825c1.044-0.662,2.425-1.727,3.854-2.904c2.951-2.417,6.132-5.412,6.533-7.41
			c0.18-0.603,0.271-1.256,0.264-1.939C961.029,457.763,958.381,454.979,955.164,455.047z"/>
		<path fill="#4FD696" d="M948.421,477.177v-2.594c-0.87-0.607-2.204-1.549-3.157-2.286c-5.862-4.56-7.082-6.822-7.439-8.275
			c-0.244-0.784-0.372-1.605-0.381-2.444c-0.031-2.305,0.846-4.54,2.404-6.127c1.44-1.464,3.334-2.275,5.332-2.283h0.002
			c1.881,0,3.622,0.641,5,1.782c1.371-1.184,3.122-1.878,4.956-1.902l0.142-0.001c4.241,0,7.736,3.686,7.793,8.216
			c0.01,0.841-0.099,1.665-0.322,2.451c-0.303,1.373-1.433,3.74-7.207,8.47c-1.669,1.375-3.033,2.4-4.051,3.046L948.421,477.177z
			 M945.252,457.167c-0.979,0.004-1.865,0.39-2.551,1.087c-0.816,0.831-1.275,2.025-1.258,3.277
			c0.004,0.469,0.076,0.918,0.213,1.342l0.047,0.171c0.065,0.287,0.662,1.932,6.012,6.092c0.787,0.609,1.891,1.394,2.715,1.972
			c0.728-0.53,1.598-1.211,2.574-2.016c5.225-4.279,5.784-5.966,5.844-6.26l0.044-0.175c0.125-0.424,0.185-0.877,0.181-1.346
			c-0.029-2.353-1.731-4.266-3.793-4.266c-1.429,0.019-2.639,0.75-3.326,1.958l-1.686,2.962l-1.764-2.916
			C947.79,457.871,946.574,457.167,945.252,457.167z"/>
	</g>
	<g>
		<g>
			<rect x="96.788" y="529.17" fill="#282D33" width="19.384" height="4"/>
		</g>
		<g>
			<rect x="86.638" y="529.17" fill="#282D33" width="6.46" height="4"/>
		</g>
	</g>
	<g>
		<g>
			<rect x="35.081" y="518.162" fill="#282D33" width="2" height="4"/>
		</g>
		<g>
			<path fill="#282D33" d="M91.215,522.162h-3.867v-4h3.867V522.162z M83.481,522.162h-3.866v-4h3.866V522.162z M75.748,522.162
				h-3.867v-4h3.867V522.162z M68.014,522.162h-3.866v-4h3.866V522.162z M60.281,522.162h-3.867v-4h3.867V522.162z M52.547,522.162
				h-3.866v-4h3.866V522.162z M44.814,522.162h-3.867v-4h3.867V522.162z"/>
		</g>
		<g>
			<rect x="95.081" y="518.162" fill="#282D33" width="2" height="4"/>
		</g>
	</g>
	<polygon fill="#4E8EF7" points="176.272,566.008 166.513,571.645 156.751,577.279 156.751,566.008 156.751,554.737 
		166.513,560.371 	"/>
	<rect x="129.236" y="538.611" fill="#4FD696" width="17.809" height="17.809"/>
	<g>
		<g>
			<rect x="165.501" y="542.199" fill="#282D33" width="4" height="4"/>
		</g>
		<g>
			<path fill="#282D33" d="M160.818,546.199h-4.683v-4h4.683V546.199z M151.453,546.199h-4.683v-4h4.683V546.199z"/>
		</g>
		<g>
			<rect x="138.088" y="542.199" fill="#282D33" width="4" height="4"/>
		</g>
		<g>
			<path fill="#282D33" d="M142.088,537.517h-4v-4.683h4V537.517z M142.088,528.151h-4v-4.684h4V528.151z"/>
		</g>
		<g>
			<rect x="138.088" y="514.785" fill="#282D33" width="4" height="4"/>
		</g>
		<g>
			<path fill="#282D33" d="M160.818,518.785h-4.684v-4h4.684V518.785z M151.452,518.785h-4.683v-4h4.683V518.785z"/>
		</g>
		<g>
			<rect x="165.501" y="514.785" fill="#282D33" width="4" height="4"/>
		</g>
		<g>
			<path fill="#282D33" d="M169.501,537.517h-4v-4.684h4V537.517z M169.501,528.15h-4v-4.683h4V528.15z"/>
		</g>
	</g>
	<circle fill="#4FD696" cx="225.748" cy="329.02" r="3.75"/>
	<g>
		<g>
			
				<rect x="741.654" y="230.254" transform="matrix(0.7071 0.7071 -0.7071 0.7071 385.0345 -456.576)" fill="#282D33" width="4" height="12.472"/>
		</g>
		<g>
			
				<rect x="737.418" y="234.489" transform="matrix(0.7071 0.7071 -0.7071 0.7071 385.0342 -456.5762)" fill="#282D33" width="12.471" height="4"/>
		</g>
	</g>
	<g>
		<g>
			
				<rect x="109.843" y="459.186" transform="matrix(0.7072 0.707 -0.707 0.7072 361.8257 57.2125)" fill="#282D33" width="4" height="12.471"/>
		</g>
		<g>
			
				<rect x="105.608" y="463.421" transform="matrix(0.7071 0.7071 -0.7071 0.7071 361.838 57.2201)" fill="#282D33" width="12.47" height="4"/>
		</g>
	</g>
	<g>
		<g>
			
				<rect x="600.233" y="240.508" transform="matrix(0.7071 0.7071 -0.7071 0.7071 350.3755 -353.7758)" fill="#282D33" width="4" height="11.089"/>
		</g>
		<g>
			
				<rect x="596.689" y="244.052" transform="matrix(0.7072 0.7071 -0.7071 0.7072 350.3375 -353.7604)" fill="#282D33" width="11.088" height="4"/>
		</g>
	</g>
	<g>
		<rect x="756.374" y="271.97" fill="#282D33" width="4.058" height="4"/>
	</g>
	<g>
		<rect x="81.753" y="487.512" fill="#282D33" width="4.058" height="4"/>
	</g>
	<g>
		<g>
			<line fill="#FFFFFF" x1="808.643" y1="252.973" x2="798.143" y2="263.476"/>
			
				<rect x="801.393" y="250.798" transform="matrix(0.7071 0.7071 -0.7071 0.7071 417.9005 -492.4526)" fill="#282D33" width="4" height="14.852"/>
		</g>
		<g>
			<line fill="#FFFFFF" x1="808.646" y1="263.476" x2="798.143" y2="252.973"/>
			
				<rect x="795.967" y="256.224" transform="matrix(0.7071 0.7071 -0.7071 0.7071 417.9355 -492.4708)" fill="#282D33" width="14.853" height="4"/>
		</g>
	</g>
	
		<rect x="266.071" y="542.524" transform="matrix(0.7071 0.7071 -0.7071 0.7071 469.5407 -32.5574)" fill="#4FD696" width="16.001" height="16.001"/>
	<g>
		<path fill="#282D33" d="M286.738,564.667l-14.144-14.143l14.144-14.143l14.141,14.143L286.738,564.667z M278.251,550.524
			l8.487,8.486l8.484-8.486l-8.484-8.486L278.251,550.524z"/>
	</g>
	<g>
		<path fill="#282D33" d="M262.072,564.667l-14.146-14.143l14.146-14.143l14.14,14.143L262.072,564.667z M253.584,550.524
			l8.488,8.486l8.484-8.486l-8.484-8.486L253.584,550.524z"/>
	</g>
</g>
</svg>
